<svg version="1.1" id="Layer_1" xmlns="http://www.w3.org/2000/svg" xmlns:xlink="http://www.w3.org/1999/xlink" x="0px" y="0px"
	 width="100%" viewBox="0 0 1024 1024" enable-background="new 0 0 1024 1024" xml:space="preserve">
<path fill="#000000" opacity="1.000000" stroke="none" 
	d="
M522.633301,109.364647 
	C513.863281,121.755173 518.001465,135.365341 517.773376,148.424286 
	C517.736938,150.512894 518.409912,152.613876 518.729187,154.552734 
	C520.478088,155.310181 521.161011,154.298492 521.824036,153.330139 
	C525.870605,147.420044 529.884583,141.487610 533.949036,135.589905 
	C536.021851,132.582092 535.685486,129.323624 535.284607,125.960701 
	C533.245056,108.847809 542.633789,93.743439 558.885254,87.904144 
	C559.647339,87.630325 560.492310,87.587112 561.256653,87.444344 
	C568.679993,102.472305 564.023193,125.188408 545.697510,134.071091 
	C542.061523,135.833496 539.260132,138.061234 537.314514,141.522919 
	C530.229248,154.129257 521.976135,166.266113 519.831055,180.996368 
	C518.458618,190.421234 518.884033,200.000046 519.516846,209.437851 
	C520.338135,221.685242 521.155701,233.973969 523.260437,246.110092 
	C523.539124,247.717117 523.174377,249.808243 525.204407,250.285736 
	C527.244202,250.765564 528.482788,249.057495 529.637268,247.628082 
	C536.575439,239.037613 537.985779,222.167480 532.588196,212.466370 
	C524.878357,198.609467 526.071472,184.069336 535.915527,171.917419 
	C539.149353,167.925369 540.262329,167.947250 543.357666,172.063873 
	C554.015686,186.238495 554.982544,199.388748 545.706360,214.144684 
	C542.256165,219.633041 544.763855,224.532669 544.808838,231.071640 
	C553.901489,223.890686 560.531311,216.585770 563.499390,206.500900 
	C563.838989,205.347046 563.320862,203.880600 563.010193,202.605453 
	C561.239685,195.338684 559.368225,188.098877 558.543213,180.635132 
	C558.303833,178.469299 557.409119,176.567657 555.909424,174.835693 
	C543.560364,160.574005 547.351624,140.602600 564.107605,131.288391 
	C574.724426,143.608597 574.861450,160.769119 564.171143,172.620331 
	C561.818359,175.228546 561.197876,177.622223 562.569031,180.696320 
	C564.213196,184.382401 564.395630,188.745880 567.790527,192.210495 
	C570.794617,187.040100 571.372803,181.544571 572.525513,176.307678 
	C575.163391,164.323761 576.111633,151.909286 581.911255,140.768448 
	C582.782959,139.093979 582.092041,137.550964 581.876709,135.918427 
	C579.011597,114.194061 591.357727,100.062218 610.127502,97.422356 
	C614.607361,111.578148 610.762756,131.265411 595.821777,138.002029 
	C587.165100,141.905182 584.038818,147.798615 582.894531,156.196899 
	C581.572144,165.902466 579.799194,175.549805 579.317322,185.355698 
	C579.255005,186.624161 578.804626,188.035507 580.322876,189.330536 
	C583.033569,188.628479 582.749084,186.271866 582.608887,184.293289 
	C581.604614,170.121002 592.627808,155.528564 608.254333,151.500458 
	C612.082214,150.513733 613.225708,151.329575 613.423889,155.284958 
	C613.981750,166.417297 611.802856,176.454910 603.520142,184.555664 
	C600.343933,187.662125 596.738892,190.338959 592.444519,191.005585 
	C584.050781,192.308578 582.266479,198.956085 579.381104,204.891144 
	C581.502930,207.108841 583.160767,205.720398 584.722595,205.047943 
	C602.604065,197.348785 615.665894,184.616058 624.421509,167.266632 
	C626.224548,163.693848 625.597839,160.100449 625.612793,156.504425 
	C625.688416,138.367386 639.026489,124.666237 657.274963,124.130928 
	C661.349426,138.371964 654.472717,158.298141 637.034241,164.858047 
	C633.188660,166.304657 630.466370,168.318359 628.662109,172.022034 
	C619.297729,191.244614 603.854553,204.249649 585.365295,214.151703 
	C564.175049,225.500183 549.467346,243.626984 535.748596,262.584412 
	C530.003052,270.524048 527.549500,279.974762 526.830811,289.798889 
	C525.675354,305.594696 526.437012,321.337708 527.688538,336.955139 
	C530.371399,338.393829 531.754089,336.476898 533.167114,335.290161 
	C544.180786,326.039856 551.789368,314.567688 555.729553,300.662476 
	C556.918823,296.465546 556.781982,292.632385 555.054138,288.550385 
	C548.143860,272.224640 552.160889,256.365295 565.610962,244.919342 
	C568.800293,242.205215 570.523376,242.751007 572.496216,246.237305 
	C580.982361,261.234039 579.020325,277.580261 567.063416,289.795380 
	C563.494507,293.441345 561.078369,301.663330 561.820129,307.637848 
	C577.705627,302.628448 593.338257,283.090637 594.646301,266.666779 
	C594.878540,263.750702 594.211243,261.156769 592.892578,258.521637 
	C585.012756,242.774994 588.164551,226.321518 601.033875,214.437561 
	C603.267578,212.374863 604.602173,212.235443 606.551331,214.840591 
	C616.941956,228.728394 616.734497,244.893326 605.105286,257.757599 
	C599.845703,263.575775 599.767944,270.133118 599.421143,276.998444 
	C602.393005,277.899414 603.508484,275.881500 604.901001,274.639496 
	C614.505249,266.073242 619.042542,254.672363 622.553833,242.730179 
	C623.444214,239.701645 623.893311,236.530930 624.932922,233.561310 
	C627.045349,227.527542 626.778442,221.673782 625.304321,215.469604 
	C621.856506,200.959488 629.794861,185.745483 642.958252,180.621307 
	C644.790161,179.908157 646.616150,179.031891 648.791504,179.801514 
	C650.563660,186.801300 651.096802,193.956726 650.193359,201.040146 
	C649.016357,210.268387 644.172974,217.565552 636.324158,222.599335 
	C633.379517,224.487839 631.815308,226.904678 631.402466,230.230637 
	C630.418579,238.158890 628.916748,245.985565 626.844910,253.701721 
	C626.411987,255.313980 625.666443,257.167908 627.557434,258.166290 
	C629.626770,259.258759 630.944885,257.538391 632.155090,256.179474 
	C633.315552,254.876465 633.495483,253.232559 633.688171,251.535858 
	C635.997009,231.209259 648.920227,222.691696 667.895081,220.030853 
	C670.388123,219.681229 671.205383,220.856674 670.894592,223.230652 
	C668.960938,237.998154 660.795776,255.505768 641.780090,257.840118 
	C634.217041,258.768555 630.810547,266.503204 625.709229,272.496216 
	C630.169067,273.351135 633.199890,271.804443 636.187683,270.726440 
	C652.891418,264.699921 666.358337,253.964355 678.363708,241.203278 
	C680.205322,239.245697 681.102600,236.762634 681.760864,234.091888 
	C686.524658,214.765121 704.999390,205.294479 723.704407,212.477219 
	C723.186768,226.141037 708.382751,241.823639 694.091248,243.238007 
	C687.968445,243.843933 683.396545,245.927292 679.060059,250.560089 
	C664.631348,265.974823 647.945618,278.042114 627.136902,283.798706 
	C614.974792,287.163239 604.294617,293.452484 594.498840,301.606171 
	C580.273499,313.446838 565.813904,324.959564 553.707092,339.094330 
	C546.628418,347.358734 541.757385,356.667480 539.575684,367.349854 
	C539.409546,368.163239 539.260254,368.993683 540.073547,369.893219 
	C540.576599,369.764435 541.284363,369.752625 541.792053,369.428009 
	C550.422607,363.909515 560.018311,360.520844 569.451538,356.753113 
	C579.788818,352.624329 588.938232,346.667236 596.784668,338.707489 
	C601.599182,333.823486 604.677551,328.322693 605.715637,321.342285 
	C608.029114,305.785492 619.693298,295.020935 635.202942,293.117645 
	C638.449341,292.719269 639.224976,293.924896 639.382202,296.870850 
	C640.220764,312.582367 630.781189,327.274048 615.445190,332.303223 
	C607.315979,334.969055 604.946594,342.081177 600.208191,347.476868 
	C602.402222,349.435120 603.939514,348.167786 605.390869,347.665680 
	C617.250854,343.563019 628.383057,338.066803 638.835327,331.030975 
	C648.582520,324.469849 652.463196,314.066833 657.499878,304.368561 
	C657.979187,303.445679 657.958313,301.993286 657.627808,300.960052 
	C652.776367,285.795380 665.166748,268.875000 683.139282,264.757751 
	C684.855164,264.364655 686.608398,263.353516 688.490601,264.212555 
	C692.714844,279.170105 682.866577,298.398804 667.740417,303.353119 
	C660.864258,305.605286 659.248474,310.364410 658.346741,316.364716 
	C660.694031,317.281128 662.114380,315.797394 663.522644,314.846985 
	C676.215088,306.281189 685.943726,294.523834 696.661255,283.835083 
	C698.482056,282.019226 698.736328,279.326874 699.583313,276.999023 
	C705.550354,260.598267 724.324219,253.946426 741.143555,260.886597 
	C743.338806,261.792419 743.523865,263.073334 742.660706,265.226746 
	C736.941101,279.496490 722.493286,289.482574 707.066162,289.135651 
	C702.465332,289.032196 699.202515,290.420715 696.123169,293.720276 
	C687.712585,302.732635 679.045166,311.505035 670.512817,320.404419 
	C669.524048,321.435638 668.060059,322.259399 668.342957,324.613342 
	C673.642273,324.596649 678.401062,321.894745 683.547546,321.337616 
	C687.362000,320.924683 690.187012,319.069000 692.716431,316.052185 
	C706.117004,300.069489 726.675293,304.355865 739.383301,315.684967 
	C741.204163,317.308228 740.856934,318.573792 739.286316,320.245148 
	C729.183350,330.996246 712.632141,335.341400 699.474548,329.552887 
	C693.207825,326.795959 687.452332,326.622833 681.190186,328.346008 
	C668.611511,331.807220 656.494385,336.220459 646.217590,345.004517 
	C656.760620,344.243713 666.824768,349.120026 677.861694,345.058594 
	C692.391113,339.711975 711.209656,349.956970 716.807617,364.413452 
	C717.839783,367.078857 716.724976,368.142456 714.632751,368.942413 
	C701.233704,374.065796 687.092041,374.754822 677.422241,363.725372 
	C664.565735,349.061005 649.554993,351.592407 633.938477,353.827637 
	C628.452332,354.612885 622.784973,355.505920 617.093018,358.829041 
	C620.792542,361.913147 623.854065,364.456543 628.725037,363.459747 
	C649.278198,359.253784 666.746521,372.346863 668.651917,393.277863 
	C652.212585,397.091431 635.970581,391.996765 629.050659,378.062378 
	C623.453247,366.790924 614.484802,364.814423 604.444153,365.589233 
	C578.361938,367.601959 556.459900,377.719940 542.954285,401.494751 
	C537.420715,411.235840 536.645508,421.891754 537.787048,432.961212 
	C539.013123,444.850006 540.574280,456.679779 542.061523,468.531342 
	C544.972656,491.730560 559.532654,503.432648 580.279419,509.523193 
	C591.440369,512.799683 602.697510,515.783569 614.001526,518.527710 
	C624.871338,521.166443 634.664917,525.811279 643.581116,532.515930 
	C646.689392,534.853210 650.111694,536.772827 654.465210,539.574890 
	C645.304932,541.350098 637.694092,540.466309 630.893066,536.304260 
	C621.707886,530.683228 611.352722,530.209961 601.248047,528.479614 
	C600.619019,528.371826 599.913513,528.511169 599.282593,528.680664 
	C598.830139,528.802185 598.442749,529.165833 597.240540,529.903809 
	C601.431152,534.693176 605.499878,539.343201 609.833252,544.295715 
	C606.869751,546.103271 604.262878,545.364075 601.618958,544.493042 
	C594.687927,542.209656 589.014648,537.754822 583.112915,533.726501 
	C572.919556,526.768738 560.806580,524.500610 549.656372,519.563354 
	C554.818604,529.073608 561.152100,537.463135 568.864807,545.815063 
	C562.585999,547.371155 557.271423,546.285645 552.205688,543.758911 
	C544.394470,539.862854 537.559021,534.572876 531.146240,528.677917 
	C528.867981,526.583679 526.947632,523.916687 522.935608,522.748108 
	C519.446228,530.851440 519.983704,540.838257 512.488281,547.589844 
	C505.815430,540.777710 506.268677,531.379883 502.690247,523.831726 
	C499.753326,523.769043 498.683502,525.912292 497.240875,527.382751 
	C488.372437,536.422485 478.729401,544.168579 465.903748,546.836243 
	C463.277283,547.382507 460.694153,547.751160 457.793091,546.729553 
	C458.950073,543.154053 462.045563,541.248474 464.189911,538.670959 
	C466.956421,535.345581 470.082520,532.318237 472.341736,528.582886 
	C473.206909,527.152405 474.389496,525.560913 473.178558,523.998413 
	C471.965942,522.433716 470.092041,523.242188 468.510162,523.649109 
	C458.029938,526.344849 448.747559,531.507874 439.933075,537.617981 
	C435.813873,540.473328 431.545929,543.068054 426.841583,544.848267 
	C423.390198,546.154419 419.867157,547.045105 415.512085,545.736816 
	C420.049255,539.663940 426.273712,535.216187 429.751923,527.424255 
	C418.399353,529.324219 407.508179,529.937500 397.649475,535.268799 
	C391.702576,538.484680 385.416504,540.485413 378.579254,540.337280 
	C376.817535,540.299194 374.902985,540.546265 373.730927,539.014893 
	C388.564240,526.330139 405.382599,518.410950 424.665558,515.544189 
	C432.352570,514.401367 439.927795,512.239563 447.413086,510.058350 
	C468.109955,504.027252 481.410736,491.224030 484.489471,469.071808 
	C486.479492,454.753357 488.576935,440.472412 488.891327,425.975403 
	C489.304688,406.915009 480.235443,392.920471 465.674377,381.876129 
	C453.171783,372.393097 438.904602,367.188416 423.364166,365.460907 
	C418.165588,364.882996 413.097717,365.895752 408.085114,367.278748 
	C404.151825,368.363953 401.495758,370.617035 399.579315,374.323242 
	C391.450897,390.042633 375.337860,397.397156 357.676056,393.714661 
	C356.995117,380.513458 371.947937,363.490753 385.094849,362.718445 
	C389.222229,362.475983 393.377319,362.276489 397.512146,363.368073 
	C402.340973,364.642883 405.354126,361.052429 409.141266,359.114655 
	C407.687622,356.844879 405.819916,356.678284 404.092224,356.158020 
	C392.151794,352.562592 379.962067,351.466095 367.557068,352.376831 
	C363.059448,352.707062 359.549042,354.336731 356.413544,357.971405 
	C344.169220,372.165039 326.731476,377.015686 307.569702,367.258118 
	C311.951233,357.580536 318.348145,349.942047 328.243073,345.633087 
	C336.444336,342.061707 344.936676,342.734650 353.135132,345.439941 
	C357.557892,346.899353 361.739899,347.378235 366.269806,346.660309 
	C370.948090,345.918854 375.683197,345.536102 381.271942,344.895782 
	C378.071289,341.745819 374.990021,340.124695 371.906921,338.644806 
	C362.285187,334.026367 352.346588,330.244598 342.026428,327.426605 
	C337.423401,326.169678 333.399200,326.683228 329.061249,328.721069 
	C314.092010,335.753265 294.210297,331.263123 284.078186,318.903717 
	C298.090332,302.474823 321.342010,301.203796 333.685883,314.642548 
	C337.332825,318.612946 341.135620,320.879211 346.182892,321.935089 
	C350.879150,322.917542 355.483246,324.340271 360.590790,325.691650 
	C360.370239,323.415894 359.220642,322.266144 358.120209,321.174957 
	C348.654297,311.788635 339.148163,302.442932 329.675598,293.063324 
	C326.823425,290.239105 323.673126,289.031586 319.439056,289.085022 
	C301.774475,289.307800 290.191406,279.880951 282.413696,264.788361 
	C281.212311,262.457092 281.649811,261.166199 284.134308,260.234680 
	C302.980072,253.168594 320.824280,261.028717 327.697479,277.950470 
	C329.314819,281.932465 331.483795,285.227448 334.640625,288.105591 
	C342.763306,295.511230 350.659821,303.166016 358.832062,310.515167 
	C360.539276,312.050446 362.981903,314.848267 365.240967,313.080780 
	C367.815033,311.066833 364.981689,308.312622 364.278656,305.928101 
	C363.473358,303.196503 361.055267,302.379913 358.758514,301.313110 
	C344.150940,294.528412 335.861633,276.662933 340.214020,260.594116 
	C349.179047,261.029877 356.856689,264.437897 362.586884,271.396179 
	C369.381592,279.647186 372.503571,289.034760 369.151611,299.753815 
	C368.738129,301.076080 368.382202,302.291840 369.168854,303.572784 
	C376.094421,314.849792 381.284607,327.364349 393.576630,334.573822 
	C403.072662,340.143372 412.784790,344.947174 423.609802,347.908356 
	C423.170868,342.408508 416.495575,333.665253 411.880310,332.235504 
	C392.929504,326.364716 387.704041,309.256836 388.679321,294.175720 
	C388.876617,291.124634 390.776184,291.420105 392.895111,291.531128 
	C405.331055,292.182526 418.803131,302.997803 419.840240,316.469177 
	C421.333099,335.861664 434.164642,345.294647 448.600677,353.536377 
	C461.146423,360.698914 475.333069,364.570770 488.746490,372.296082 
	C486.747162,361.508545 483.011414,352.423584 477.322937,344.225433 
	C464.796326,326.172272 447.832031,312.723999 430.788269,299.255890 
	C420.315399,290.980194 408.184906,286.563812 396.061737,282.012604 
	C375.929688,274.454773 359.424561,261.775574 344.678619,246.546585 
	C341.932404,243.710419 339.163544,242.346924 335.161560,242.150726 
	C318.268158,241.322525 303.144348,227.491150 301.261841,211.559204 
	C322.044342,204.890045 339.512787,214.037994 344.424194,233.786224 
	C344.993469,236.075195 345.831940,238.252869 347.488861,239.985565 
	C361.251587,254.377289 376.463196,266.564819 396.174866,271.880493 
	C398.458954,272.496429 398.455719,272.508423 402.274475,271.620026 
	C397.044617,265.467377 393.232086,258.324829 384.443787,257.599152 
	C372.405426,256.605133 364.966309,249.929230 360.450684,239.311905 
	C358.158752,233.923050 356.883972,228.282379 356.353485,222.420242 
	C356.069855,219.286026 357.135620,218.639877 359.995239,218.998199 
	C377.766052,221.224976 389.387299,231.660110 392.967560,249.477661 
	C393.739166,253.317703 395.894775,255.217911 398.667969,257.070831 
	C399.811432,257.834839 401.115906,258.275726 402.423767,257.495514 
	C403.803986,256.672119 403.822906,255.181152 403.545258,253.916092 
	C401.335968,243.849701 399.531586,233.723923 398.456818,223.465866 
	C398.247711,221.470062 396.340546,220.536758 394.850586,219.522293 
	C381.298889,210.295380 378.686462,197.281143 381.467010,182.134125 
	C382.266479,177.779053 384.236389,177.634216 387.694794,178.770584 
	C397.861115,182.111069 406.527954,193.186035 407.256470,204.378403 
	C407.590973,209.517548 407.442444,214.634979 406.132019,219.743759 
	C404.368469,226.619110 407.066711,233.222519 408.463745,239.785599 
	C411.181366,252.552322 414.894562,265.021912 424.569885,274.622345 
	C425.900177,275.942352 427.084625,278.309570 429.453094,277.187225 
	C431.762177,276.093018 430.655701,273.690430 430.745270,271.777557 
	C431.038696,265.512787 429.124664,260.417572 424.820435,255.488831 
	C414.846741,244.067993 415.506592,225.168228 425.334229,213.421570 
	C427.217285,211.170853 428.414307,211.761063 430.228577,213.218094 
	C442.561584,223.122711 446.496338,240.072845 439.743835,254.218414 
	C437.645020,258.615173 433.936829,262.409637 435.308807,268.071442 
	C437.331635,276.419037 439.772766,284.792572 445.719421,291.004181 
	C451.611938,297.159332 458.762604,302.109985 465.967651,307.165985 
	C466.413086,300.346130 464.947205,294.307526 460.739441,289.188568 
	C455.188263,282.435211 451.537933,275.016083 451.282715,266.089050 
	C451.066132,258.514343 453.041565,251.637329 457.062714,245.262466 
	C458.836151,242.450943 460.660645,242.471939 463.187256,244.425064 
	C476.657135,254.837463 481.024628,271.247162 473.800476,286.836761 
	C471.439758,291.931122 471.316589,296.502899 472.995483,301.683075 
	C477.275055,314.888000 485.002991,325.731689 495.007812,335.117706 
	C495.722046,335.787781 496.435059,336.563538 498.073853,336.125488 
	C498.556061,332.946533 499.350098,329.579346 499.533661,326.179169 
	C500.332611,311.381531 501.376465,296.570129 500.567261,281.750671 
	C500.110443,273.384277 496.870605,265.857300 491.383057,259.503784 
	C479.620056,245.884460 467.774170,232.335297 455.833191,218.871826 
	C451.036926,213.464020 445.218536,209.267365 438.709198,206.086609 
	C421.268921,197.564545 406.529510,186.015778 396.718781,168.874878 
	C395.014832,165.897827 392.495026,164.015030 389.149658,162.773438 
	C373.923065,157.122345 364.995026,143.183105 365.594269,126.929016 
	C365.730072,123.245628 367.029968,122.354469 370.502502,123.013626 
	C389.503357,126.620399 399.242706,137.837906 400.194214,157.434036 
	C400.274719,159.092300 400.198608,160.781372 401.134277,162.277664 
	C411.517700,178.882843 424.452850,192.646347 443.152618,199.977325 
	C443.873169,200.259811 444.666748,200.355957 446.739990,200.855362 
	C441.852844,193.935287 440.204559,186.646194 431.353851,183.985565 
	C414.583252,178.944107 405.942413,156.820602 414.002838,141.951248 
	C430.846954,147.768051 443.313080,161.181183 442.390564,178.956177 
	C442.272369,181.233780 441.609161,184.088257 445.595306,184.924164 
	C446.114899,177.118179 444.126434,169.854706 443.344055,162.503769 
	C442.818573,157.566788 441.527649,152.715332 440.699127,147.805359 
	C439.993744,143.625412 437.556519,141.194901 433.776581,139.391449 
	C416.514984,131.155869 409.117523,114.362289 414.481445,95.223709 
	C425.660706,96.934654 434.182251,102.660934 439.694122,112.417343 
	C443.342194,118.874657 445.066559,125.991051 443.585052,133.574142 
	C443.171722,135.689819 442.903381,137.956573 443.902527,139.970688 
	C449.991791,152.245499 451.109772,165.838394 454.313507,178.876144 
	C455.537964,183.859009 456.658722,188.868835 459.135315,194.829788 
	C462.721252,188.561279 465.084076,182.942490 465.573425,176.643875 
	C465.779388,173.992828 463.422943,172.642899 461.916962,170.937271 
	C452.349670,160.101944 452.084045,141.787613 461.371490,130.414169 
	C476.404480,135.524033 483.296539,157.587479 473.799225,170.906677 
	C471.270996,174.452301 469.844238,178.128510 469.337006,182.338593 
	C468.657410,187.979218 467.042969,193.422943 465.288452,198.785248 
	C463.345215,204.724487 464.514435,209.866959 468.099335,214.750595 
	C472.286743,220.454971 477.410675,224.955353 483.865997,228.134354 
	C485.854736,224.475357 484.227386,222.024292 482.529572,219.470291 
	C472.638611,204.591415 473.483490,190.613068 485.055847,176.812485 
	C485.464630,176.324951 486.051544,175.986771 486.888245,175.309616 
	C495.511017,182.187317 499.318146,191.218719 499.073303,201.881882 
	C498.931122,208.073822 497.025085,213.979614 493.741302,219.371506 
	C488.202087,228.466721 489.102325,235.909592 496.616791,243.479706 
	C498.463379,245.339996 500.103027,247.530548 503.463531,248.474564 
	C505.597504,243.499680 505.139099,238.121567 505.519196,233.040222 
	C506.499756,219.932983 507.111603,206.787750 507.457886,193.646835 
	C507.722290,183.612350 506.757294,173.836777 501.211182,164.829102 
	C496.068024,156.475800 491.708496,147.629623 487.217621,138.890671 
	C485.598236,135.739380 483.391296,133.786057 480.150970,132.330963 
	C463.533325,124.868797 456.570129,104.717300 464.614349,88.360580 
	C466.032135,85.477707 467.466461,85.319679 470.053528,86.766914 
	C483.693939,94.397614 491.604767,105.705139 491.035431,121.562546 
	C490.777008,128.759506 492.592316,134.538376 497.076965,139.877945 
	C500.247803,143.653244 502.256500,148.375198 506.501709,151.758896 
	C508.185608,148.457687 508.230530,145.055695 508.486572,141.891129 
	C508.902069,136.756012 508.922913,131.586243 509.610168,126.457191 
	C510.262054,121.591881 508.805969,117.523712 505.739288,113.533974 
	C493.243347,97.276924 498.697357,79.844208 510.243622,67.363159 
	C512.921814,64.468109 514.614319,66.485878 516.246765,68.509819 
	C526.126526,80.758789 529.295410,94.111732 522.633301,109.364647 
z"/>
<path fill="#000000" opacity="1.000000" stroke="none" 
	d="
M496.324280,733.797424 
	C502.297729,748.037903 508.148071,761.916077 514.391357,776.726379 
	C518.440002,770.559509 520.208984,764.630859 522.653076,759.064636 
	C528.878174,744.887451 534.909302,730.622681 540.809753,716.307068 
	C542.212952,712.902588 544.054504,711.405396 547.848816,711.562378 
	C554.668640,711.844482 561.508667,711.694763 568.339355,711.631348 
	C570.931335,711.607300 572.404846,712.352661 572.349426,715.300415 
	C572.301086,717.874695 571.655151,719.476624 568.712219,719.374023 
	C563.631226,719.196960 562.148682,722.057007 562.315735,726.699951 
	C563.069702,747.651489 563.673645,768.608276 564.393494,789.561035 
	C564.567749,794.633850 566.189514,798.811646 572.057800,799.540405 
	C574.874512,799.890137 574.958252,801.805115 574.858643,803.911133 
	C574.746704,806.281189 572.999817,806.337219 571.283569,806.367737 
	C561.292725,806.544861 551.301758,806.804443 541.310791,806.804688 
	C539.080444,806.804749 536.097473,807.416382 535.649780,803.563049 
	C535.219177,799.856140 537.856079,799.492920 540.249451,799.039307 
	C545.362915,798.070251 545.681580,794.222473 545.615540,790.281189 
	C545.333679,773.461060 544.946350,756.642578 544.601807,739.823486 
	C544.581604,738.837158 544.599182,737.850037 543.884338,736.589600 
	C541.566956,741.734558 539.166687,746.844055 536.947571,752.031006 
	C529.875732,768.560486 522.900696,785.131409 515.806824,801.651367 
	C514.822510,803.943665 514.549927,806.983765 510.830322,807.025085 
	C506.910004,807.068665 505.882874,804.212585 504.710052,801.452942 
	C496.376160,781.843933 488.076050,762.220581 479.740173,742.612427 
	C478.983215,740.831787 478.570312,738.838928 476.894135,737.351013 
	C475.641418,739.361633 475.619324,741.526550 475.607666,743.609375 
	C475.521729,758.926819 473.903046,774.196960 474.263153,789.530273 
	C474.369995,794.080444 475.319305,797.733032 480.450592,798.977417 
	C484.541718,799.969482 483.202454,803.087097 483.203522,806.408081 
	C473.845062,806.408081 464.904724,806.410583 455.964417,806.406006 
	C454.171539,806.405090 453.157837,805.573242 453.127960,803.699463 
	C453.097321,801.775391 453.266327,799.842468 455.528442,799.326843 
	C462.697693,797.692932 463.436127,792.204346 463.638977,786.259705 
	C464.297028,766.975098 464.884064,747.686523 465.777863,728.412476 
	C466.018768,723.217468 464.672943,719.935974 459.106232,719.503906 
	C455.763824,719.244446 455.679779,716.976074 455.813477,714.497864 
	C455.971008,711.578064 458.132538,711.679810 460.151611,711.672363 
	C467.815887,711.643982 475.483337,711.773438 483.143250,711.585938 
	C486.188751,711.511353 487.610291,712.850281 488.657806,715.479187 
	C491.060547,721.509033 493.673523,727.455078 496.324280,733.797424 
z"/>
<path fill="#000000" opacity="1.000000" stroke="none" 
	d="
M411.358673,713.278442 
	C424.301666,717.114319 429.753662,723.444824 431.056061,735.854309 
	C432.206146,746.812622 425.899567,755.949280 411.805267,763.294495 
	C416.220367,771.836243 421.665131,779.738770 426.878265,787.775696 
	C430.075653,792.704895 433.441162,797.449158 439.500732,799.281067 
	C441.690918,799.943237 441.811981,801.832336 441.817169,803.748779 
	C441.823456,806.050476 440.218719,806.347717 438.492371,806.613403 
	C432.158600,807.588257 425.870300,807.186218 419.650299,805.834412 
	C416.054169,805.052979 413.563690,802.602905 411.363129,799.770569 
	C404.694824,791.187805 399.562622,781.636169 393.985443,772.365906 
	C392.512543,769.917725 391.073639,767.431763 388.401337,766.139832 
	C385.567352,764.769653 383.369232,765.157349 383.339142,768.890015 
	C383.273376,777.052307 383.296082,785.216125 383.373627,793.378418 
	C383.403076,796.480530 385.100433,798.275757 388.198486,798.768921 
	C389.345856,798.951477 390.467194,799.301270 391.597717,799.585449 
	C393.974091,800.182861 393.959991,802.093079 393.927490,803.953064 
	C393.891937,805.988464 392.428162,806.329468 390.820526,806.348206 
	C379.666351,806.478333 368.511963,806.653625 357.357666,806.651428 
	C355.358307,806.651062 352.955444,806.805115 352.663208,803.512207 
	C352.372620,800.238159 354.290405,799.495667 356.761566,799.103149 
	C361.853058,798.294556 363.378754,795.300476 363.290070,790.288696 
	C362.924957,769.644104 362.518555,748.991333 363.467712,728.349121 
	C363.726807,722.714539 362.094727,720.438416 356.177490,719.285767 
	C353.491211,718.762512 352.654999,717.381226 352.695099,714.797668 
	C352.739960,711.908508 354.505157,711.643188 356.673706,711.645935 
	C372.500458,711.666321 388.327667,711.623108 404.153381,711.758972 
	C406.430725,711.778503 408.700775,712.650146 411.358673,713.278442 
M387.779877,721.238953 
	C384.242645,720.841064 383.149475,722.555603 383.242035,725.919739 
	C383.415497,732.224487 383.275635,738.537476 383.288483,744.847046 
	C383.313721,757.227295 383.320068,757.227417 395.864349,755.664062 
	C404.103729,754.637268 409.395172,748.176880 409.642883,738.841736 
	C409.890472,729.510986 404.896545,722.722839 396.645660,721.497681 
	C394.037537,721.110352 391.342804,721.306396 387.779877,721.238953 
z"/>
<path fill="#000000" opacity="1.000000" stroke="none" 
	d="
M656.343750,671.962402 
	C656.344299,672.957031 656.447083,673.482910 656.327454,673.952026 
	C655.697144,676.423218 658.068176,680.346252 654.050171,681.098877 
	C650.351013,681.791809 646.547363,682.266663 643.390015,678.082275 
	C628.146301,657.880127 612.525818,637.962219 597.023804,617.955139 
	C595.814270,616.394104 594.488159,614.923340 593.141296,613.321533 
	C591.733398,614.672424 592.474365,616.239197 592.465454,617.573547 
	C592.367310,632.230591 592.334106,646.888367 592.364563,661.545776 
	C592.379883,668.910095 593.832275,670.822632 600.921326,672.741028 
	C603.481201,673.433716 604.415955,674.790100 604.282532,677.389099 
	C604.131531,680.330200 602.201233,680.367737 600.118408,680.367676 
	C591.790161,680.367432 583.461975,680.361816 575.133728,680.351379 
	C573.044128,680.348755 571.081421,680.266968 570.909973,677.381104 
	C570.758789,674.837158 571.572998,673.056091 574.242920,672.733276 
	C580.024475,672.034241 581.563660,667.944885 581.592834,663.132080 
	C581.715942,642.811890 581.622620,622.490417 581.669922,602.169617 
	C581.680786,597.505432 579.315796,594.925964 574.899292,594.485168 
	C571.919922,594.187744 570.824707,592.973083 570.937439,590.054688 
	C571.071228,586.593567 573.367249,586.647034 575.801758,586.651367 
	C580.465576,586.659729 585.183228,587.072754 589.780212,586.511780 
	C596.291626,585.717163 600.068726,588.700928 603.778687,593.646790 
	C616.265686,610.293640 629.175232,626.623596 641.939087,643.062317 
	C642.846802,644.231506 643.883484,645.300537 644.830322,646.382019 
	C646.375610,645.815186 645.844971,644.633057 645.844177,643.777039 
	C645.832214,630.452454 645.649780,617.126831 645.775085,603.803955 
	C645.819275,599.102905 644.083191,595.961121 639.524475,594.966614 
	C636.055725,594.209839 635.347351,592.205017 635.792786,589.172180 
	C636.279541,585.857117 638.919250,586.719360 640.883972,586.689941 
	C648.211121,586.580139 655.541077,586.609375 662.869507,586.654297 
	C664.804443,586.666260 667.098877,586.331055 667.243164,589.360046 
	C667.356995,591.749146 667.436279,593.767090 664.331177,594.788818 
	C657.523438,597.028809 656.373779,598.826843 656.360168,606.006958 
	C656.318726,627.827026 656.344055,649.647278 656.343750,671.962402 
z"/>
<path fill="#000000" opacity="1.000000" stroke="none" 
	d="
M334.749695,586.658081 
	C339.872498,587.091919 344.395172,588.099121 348.749634,589.796936 
	C357.267273,593.117859 362.892517,598.843872 364.365143,608.215210 
	C366.227112,620.064331 362.849335,629.933960 353.376404,637.392456 
	C346.864075,642.519897 339.258331,644.462646 330.990662,644.461853 
	C316.673340,644.460388 316.667633,644.564575 317.002625,658.810242 
	C317.049591,660.806396 317.290070,662.802124 317.257751,664.795044 
	C317.178986,669.657532 319.566132,672.283752 324.337585,672.653076 
	C327.326935,672.884460 329.542786,673.546692 329.269012,677.297974 
	C328.970703,681.384827 325.927948,680.304932 323.691101,680.326050 
	C313.205688,680.424927 302.718292,680.419312 292.232788,680.323425 
	C289.978027,680.302856 286.997467,681.313599 286.676727,677.248474 
	C286.390198,673.616577 288.152039,672.727112 291.370117,672.530579 
	C295.156921,672.299438 296.715454,669.942078 296.701935,666.108459 
	C296.625641,644.470215 296.621124,622.831299 296.716003,601.193237 
	C296.734894,596.883850 294.974823,594.486816 290.668762,594.398560 
	C287.673706,594.337219 286.625671,593.085632 286.636536,590.126892 
	C286.649628,586.561157 288.909882,586.654053 291.335205,586.654724 
	C305.649933,586.658752 319.964691,586.654663 334.749695,586.658081 
M341.585693,623.922241 
	C347.589386,606.756714 338.763489,594.900757 321.094269,596.323303 
	C318.849976,596.503967 317.147156,596.929932 317.160370,599.660278 
	C317.210358,609.990784 317.223969,620.321594 317.273193,630.652100 
	C317.280121,632.099548 317.831757,633.097168 319.411896,633.580933 
	C327.552795,636.073242 336.665497,632.371826 341.585693,623.922241 
z"/>
<path fill="#000000" opacity="1.000000" stroke="none" 
	d="
M532.242126,624.913513 
	C537.137573,638.581543 541.912476,651.878357 546.690918,665.173889 
	C547.981384,668.764526 549.852173,671.779846 553.937439,672.714111 
	C557.028564,673.421021 556.255310,675.906311 556.191589,677.974182 
	C556.117493,680.379456 554.253967,680.340637 552.577820,680.345764 
	C542.921265,680.375183 533.264465,680.388794 523.607910,680.355225 
	C522.147156,680.350159 520.390808,680.445618 520.009338,678.474915 
	C519.655884,676.649170 519.506592,674.565613 521.601257,673.689758 
	C527.068665,671.403931 526.427429,667.543152 524.899841,663.037537 
	C519.959290,648.465637 523.300964,651.465332 508.896118,651.082031 
	C503.572235,650.940308 498.239685,651.143311 492.914001,651.039673 
	C489.999664,650.982971 488.263702,652.223022 487.255981,654.911987 
	C486.032379,658.177002 484.494843,661.326721 483.324646,664.608887 
	C481.589386,669.475830 482.512726,671.062927 487.507477,672.650879 
	C488.919525,673.099731 490.527527,673.439148 491.586151,674.358093 
	C492.775055,675.390076 492.395599,677.161011 492.104858,678.628113 
	C491.758392,680.376465 490.246887,680.328735 488.939850,680.333740 
	C480.781799,680.365234 472.623444,680.369934 464.465454,680.332092 
	C462.815277,680.324463 460.959381,680.392151 460.780853,677.996460 
	C460.631531,675.992065 460.295502,673.738770 462.761902,672.912598 
	C469.222931,670.748352 471.654846,665.396240 473.817017,659.652710 
	C482.429810,636.773865 491.210632,613.957703 499.704956,591.035217 
	C501.217407,586.953735 503.302429,585.382385 507.707672,585.587952 
	C519.411194,586.134033 516.893188,583.633606 521.231567,595.070496 
	C524.945923,604.862427 528.498718,614.715698 532.242126,624.913513 
M509.559662,619.805542 
	C508.161926,616.222900 506.764160,612.640320 504.938721,607.961426 
	C501.139984,619.197510 496.290985,628.609314 493.610168,638.868164 
	C498.836487,640.024475 511.654907,639.932617 516.016968,638.716858 
	C514.657349,632.420410 511.906067,626.584656 509.559662,619.805542 
z"/>
<path fill="#000000" opacity="1.000000" stroke="none" 
	d="
M593.440369,799.492310 
	C601.054260,797.514893 601.640686,796.767517 601.646057,789.017395 
	C601.660034,768.856995 601.658813,748.696594 601.647400,728.536194 
	C601.643250,721.298035 601.407654,720.884888 594.159729,719.373291 
	C591.475159,718.813416 591.160034,717.197388 591.168396,715.049683 
	C591.179871,712.076599 593.020447,711.622192 595.493286,711.627319 
	C613.820801,711.665100 632.148438,711.638184 650.476074,711.631958 
	C653.590881,711.630920 656.705688,711.631775 660.147156,711.631775 
	C660.540283,718.571716 660.930176,724.847595 661.230347,731.127808 
	C661.318909,732.978882 661.315857,734.996887 658.721191,735.214417 
	C656.569580,735.394836 654.310791,735.740356 653.385315,732.888245 
	C652.925049,731.469849 652.266907,730.105652 651.598572,728.766724 
	C649.642639,724.848022 646.329590,722.666443 642.077698,722.447266 
	C636.426636,722.156067 630.750977,722.372925 625.087891,722.268555 
	C622.263611,722.216553 621.298096,723.533752 621.327881,726.236023 
	C621.414246,734.065918 621.441589,741.898804 621.316956,749.727661 
	C621.267029,752.869141 622.698853,753.825562 625.575928,753.695984 
	C628.569397,753.561157 631.574707,753.707642 634.571106,753.613525 
	C638.604736,753.486755 641.640869,751.862793 642.814514,747.700684 
	C643.506104,745.248291 644.629272,743.435974 647.669373,743.886353 
	C650.911438,744.366760 650.296814,746.845764 650.315002,748.895874 
	C650.375549,755.726501 650.364075,762.558228 650.310669,769.388977 
	C650.298218,770.983948 650.581299,772.923096 648.183350,773.232117 
	C646.108093,773.499512 644.495117,773.297791 643.284912,770.976990 
	C640.209351,765.079468 629.218201,761.697998 623.087952,764.408142 
	C621.310730,765.193909 621.367615,766.680298 621.365601,768.176331 
	C621.355530,775.673950 621.240112,783.174622 621.421326,790.667969 
	C621.526672,795.021545 623.154114,798.446594 628.230652,798.991333 
	C630.895325,799.277344 632.446716,800.672485 632.169128,803.657654 
	C631.854675,807.039612 629.301819,806.351868 627.295288,806.373596 
	C616.635193,806.489502 605.973816,806.559265 595.313599,806.504761 
	C593.660400,806.496277 591.290588,806.952271 590.904968,804.352051 
	C590.623047,802.451538 590.139160,800.189941 593.440369,799.492310 
z"/>
<path fill="#000000" opacity="1.000000" stroke="none" 
	d="
M729.349915,607.087524 
	C729.350586,625.908264 729.330444,644.241333 729.361572,662.574341 
	C729.374084,669.954956 729.878845,670.676453 737.166870,672.700073 
	C739.772217,673.423523 739.321289,675.232178 739.356445,677.010742 
	C739.393555,678.889832 738.880249,680.307495 736.623962,680.307373 
	C725.291809,680.306519 713.959595,680.313049 702.627441,680.320435 
	C700.122070,680.322021 699.655090,678.730530 699.679810,676.665771 
	C699.703369,674.699707 699.912170,672.803101 702.436157,672.771179 
	C708.670654,672.692261 709.658447,668.613953 709.654480,663.635864 
	C709.638489,643.302856 709.552490,622.969055 709.724976,602.637512 
	C709.760742,598.424988 708.193848,597.373535 704.209717,597.133545 
	C695.796570,596.626709 689.459595,598.789917 686.667908,607.568298 
	C685.502930,611.231567 682.627808,609.201904 680.176208,609.105713 
	C678.606018,602.356995 680.354553,595.819580 680.928833,589.273132 
	C681.196716,586.219849 683.929138,586.664795 686.033813,586.659058 
	C698.533447,586.624634 711.033325,586.642029 723.533081,586.639771 
	C733.699585,586.637878 743.867920,586.744507 754.031555,586.570618 
	C757.750244,586.507019 759.562073,587.479858 759.391296,591.589539 
	C759.198181,596.236145 759.616821,600.906067 759.698975,605.567139 
	C759.728638,607.247437 759.709595,609.126221 757.381775,609.280762 
	C755.454712,609.408691 753.212036,609.904785 752.420532,607.222473 
	C749.940857,598.819031 743.907776,596.564636 735.820679,597.091858 
	C729.617554,597.496277 729.390198,597.400879 729.350830,603.599609 
	C729.344482,604.599609 729.349792,605.599792 729.349915,607.087524 
z"/>
<path fill="#000000" opacity="1.000000" stroke="none" 
	d="
M407.395599,643.000122 
	C407.391876,650.495972 407.477814,657.493591 407.345276,664.487061 
	C407.273651,668.266724 408.740967,670.078430 412.638855,669.866272 
	C415.296021,669.721680 417.968781,669.893860 420.631927,669.823914 
	C432.289917,669.517944 438.242493,665.074402 441.998871,653.948914 
	C442.420929,652.698853 442.621155,651.234985 443.416931,650.281372 
	C444.722992,648.716248 446.726898,648.925293 448.538330,649.320007 
	C450.551636,649.758728 450.419373,651.514954 450.276337,652.952698 
	C449.504425,660.711670 448.594971,668.456848 447.798798,676.213562 
	C447.493530,679.187500 446.184814,680.456848 442.991211,680.437744 
	C422.670502,680.316284 402.348724,680.368225 382.027313,680.366333 
	C379.739105,680.366089 377.700287,680.279846 377.657867,677.065857 
	C377.620392,674.229675 378.454956,672.624084 381.554840,672.624084 
	C386.125061,672.624084 387.597046,669.650208 387.607086,665.712830 
	C387.662720,643.892456 387.623138,622.071838 387.675385,600.251465 
	C387.685242,596.140991 385.275055,594.593506 381.720093,594.410645 
	C378.793396,594.260132 376.914642,593.480957 377.043732,590.083984 
	C377.189331,586.251526 379.886902,586.654419 382.381439,586.652527 
	C392.375580,586.644775 402.369934,586.617249 412.363708,586.676758 
	C414.715729,586.690796 417.647278,585.905151 417.895416,589.850830 
	C418.123901,593.483459 416.183350,594.381836 412.978851,594.372986 
	C408.224640,594.359863 407.354919,597.661438 407.358124,601.524048 
	C407.369415,615.182739 407.382111,628.841370 407.395599,643.000122 
z"/>
<path fill="#000000" opacity="1.000000" stroke="none" 
	d="
M328.417572,169.305206 
	C327.333435,162.958481 327.817444,162.240173 333.549408,162.716888 
	C351.293701,164.192581 365.296234,175.662064 365.325195,193.983826 
	C365.330658,197.435486 367.184143,199.934494 368.976807,202.527237 
	C372.069611,207.000397 375.194489,211.451370 378.186981,215.741211 
	C376.588409,217.805145 375.358551,217.185394 374.282043,216.391830 
	C373.218597,215.607880 372.155365,214.733231 371.356964,213.694687 
	C365.708038,206.346619 359.091583,201.210907 349.760925,198.177643 
	C336.827148,193.973038 330.581055,182.980988 328.417572,169.305206 
z"/>
<path fill="#000000" opacity="1.000000" stroke="none" 
	d="
M676.275757,168.042786 
	C682.652222,165.052475 688.791504,162.712357 695.619141,163.883453 
	C698.557312,177.642349 688.945435,195.766068 674.832825,200.523743 
	C667.357910,203.043716 662.200745,207.137573 657.983826,213.238922 
	C656.007446,216.098495 653.306824,217.766525 648.537109,218.499222 
	C651.463623,214.231171 653.793579,210.823212 656.134094,207.422516 
	C658.765930,203.598557 660.420593,199.941864 660.332458,194.723312 
	C660.137207,183.167847 665.615845,174.039780 676.275757,168.042786 
z"/>
<path fill="#000000" opacity="1.000000" stroke="none" 
	d="
M495.204895,879.597412 
	C493.916779,882.729431 491.613800,882.227051 489.584747,881.635803 
	C487.593231,881.055481 487.893707,879.047485 487.708069,877.414307 
	C487.238251,873.281189 488.514465,868.924072 486.415558,864.242920 
	C481.663055,867.717102 481.276703,873.346619 477.499908,877.122925 
	C473.303528,873.505920 472.882202,867.640137 469.390686,863.851013 
	C466.957611,864.575684 467.416687,866.470581 467.369690,868.025940 
	C467.269135,871.353027 467.194366,874.687805 467.309814,878.012451 
	C467.418793,881.151001 465.851318,882.069153 463.004944,881.974182 
	C459.863068,881.869507 459.495270,879.850769 459.854370,877.518982 
	C461.129974,869.236206 460.463623,860.902039 460.696930,852.592407 
	C460.748871,850.742371 460.020844,848.171387 462.952057,847.855469 
	C465.656555,847.563965 468.629974,846.795349 470.475983,850.060852 
	C472.579224,853.781372 473.735138,858.039307 476.903900,861.710815 
	C480.809814,859.252808 481.877899,855.115845 483.766541,851.584229 
	C484.695984,849.846130 485.268677,847.990845 487.766968,847.638611 
	C492.978455,846.903687 494.211060,847.875366 494.372833,853.216614 
	C494.634644,861.859863 494.960938,870.501160 495.204895,879.597412 
z"/>
<path fill="#000000" opacity="1.000000" stroke="none" 
	d="
M431.350403,931.469482 
	C431.337769,934.901062 431.300690,937.893188 431.322174,940.884949 
	C431.337585,943.033081 430.641022,944.327332 428.184143,944.324097 
	C425.633209,944.320801 424.639679,943.215942 424.656219,940.699463 
	C424.713043,932.056152 424.609253,923.411621 424.693542,914.768799 
	C424.711121,912.965149 423.845093,910.509399 426.729706,909.867554 
	C429.210999,909.315552 431.244202,910.001038 432.821686,912.168884 
	C436.145325,916.736267 439.547241,921.248413 443.000916,925.718445 
	C443.857239,926.826782 444.392334,928.419739 446.508453,928.615112 
	C447.575897,923.885193 446.819702,919.099487 447.018219,914.372742 
	C447.121063,911.925171 447.182190,909.707703 450.640289,909.695129 
	C453.999207,909.682922 454.335938,911.634583 454.323425,914.235352 
	C454.282593,922.712769 454.365051,931.190857 454.292450,939.667786 
	C454.278046,941.346191 454.948364,943.606506 452.381866,944.186279 
	C450.197296,944.679749 448.050446,944.552185 446.510651,942.539246 
	C443.079010,938.053162 439.669617,933.549927 436.216949,929.080078 
	C435.004364,927.510315 433.691986,926.017517 431.868958,923.818665 
	C431.663757,926.675659 431.507355,928.852783 431.350403,931.469482 
z"/>
<path fill="#000000" opacity="1.000000" stroke="none" 
	d="
M670.381165,909.779541 
	C672.890564,910.396118 672.322388,912.148621 672.328979,913.531311 
	C672.370178,922.188110 672.385498,930.845642 672.299255,939.501892 
	C672.282471,941.184204 673.042786,943.492065 670.577332,944.151245 
	C668.202881,944.786072 666.048645,944.323059 664.428101,942.063416 
	C661.034424,937.331421 657.506409,932.695068 653.993469,928.049744 
	C653.320740,927.160217 652.760986,926.001770 650.787354,926.108582 
	C649.602722,930.325195 650.289124,934.781189 650.196167,939.155579 
	C650.137268,941.923096 650.444946,944.566101 646.298950,944.492004 
	C642.404358,944.422546 642.736694,941.854492 642.734253,939.338440 
	C642.726624,931.347351 642.669128,923.355469 642.778687,915.365845 
	C642.805725,913.391479 641.824158,910.705688 644.821655,909.906189 
	C647.689880,909.141113 649.910400,910.196655 651.665649,912.709473 
	C654.618591,916.937073 657.771179,921.026672 660.891235,925.135193 
	C661.968872,926.554138 662.809753,928.274475 665.094238,928.923584 
	C666.309082,923.967224 665.537048,919.005676 665.621094,914.115967 
	C665.674805,910.993469 666.635803,909.337952 670.381165,909.779541 
z"/>
<path fill="#000000" opacity="1.000000" stroke="none" 
	d="
M300.156067,847.672913 
	C303.799835,847.655334 306.959473,847.599182 310.116211,847.670654 
	C320.718811,847.910645 324.627869,854.851135 319.284821,863.996216 
	C319.331879,865.476074 320.740173,866.089417 321.455841,867.157288 
	C325.265350,872.841614 322.726471,879.760315 316.039825,881.117920 
	C310.989197,882.143372 305.805359,882.150696 300.642487,882.066895 
	C297.700256,882.019104 296.566193,880.690369 296.605591,877.750000 
	C296.721436,869.107666 296.659882,860.462891 296.663910,851.819092 
	C296.664917,849.708801 296.791718,847.700989 300.156067,847.672913 
M306.691528,867.478088 
	C304.521454,867.501953 303.174744,868.340149 303.586639,870.764526 
	C303.939362,872.840515 303.976471,875.048584 306.852112,875.570435 
	C310.907715,876.306335 315.571167,874.513489 315.380432,871.825012 
	C315.073456,867.498230 311.430450,867.758301 308.365967,867.431580 
	C308.041901,867.397034 307.709778,867.437622 306.691528,867.478088 
M312.201691,854.837158 
	C304.279907,853.368103 302.881927,854.560120 304.795410,861.555725 
	C306.655243,861.555725 308.648376,861.810486 310.549622,861.500916 
	C314.131775,860.917542 314.874390,858.653381 312.201691,854.837158 
z"/>
<path fill="#000000" opacity="1.000000" stroke="none" 
	d="
M627.145630,848.246216 
	C634.314758,850.744568 636.413574,855.106567 633.474060,861.437561 
	C632.490417,863.556091 632.682495,864.965637 633.901367,866.887024 
	C638.556702,874.225586 635.559692,880.297485 626.910706,881.412720 
	C609.664062,883.636536 609.658447,883.636536 609.602112,866.303040 
	C609.582703,860.330994 609.598999,854.358887 609.598999,847.898499 
	C615.571045,847.562134 621.148743,847.311279 627.145630,848.246216 
M628.012024,872.927673 
	C627.537292,868.837952 624.931763,867.121460 620.035156,867.526917 
	C617.801636,867.711975 616.289917,868.236023 616.301941,871.002869 
	C616.313049,873.582703 617.091736,875.197021 619.787476,875.439636 
	C622.614502,875.694092 625.466980,875.943481 628.012024,872.927673 
M626.623596,856.287476 
	C622.435608,853.324402 617.200806,853.445251 616.526550,856.609985 
	C616.072937,858.738953 615.974976,860.966492 619.067139,861.588806 
	C623.713501,862.523804 625.992065,861.245728 626.623596,856.287476 
z"/>
<path fill="#000000" opacity="1.000000" stroke="none" 
	d="
M602.277283,914.298462 
	C610.518494,907.411316 620.687073,907.591309 627.156921,914.470703 
	C633.677002,921.403564 633.436218,933.457703 626.641785,940.255737 
	C620.341492,946.559326 609.990540,946.736328 603.125793,940.657654 
	C595.967224,934.318604 595.467773,922.572876 602.277283,914.298462 
M606.166931,932.315247 
	C609.759766,937.447937 613.990173,939.117188 618.344299,937.120300 
	C622.535034,935.198303 625.371948,928.818237 623.959351,924.492188 
	C621.946472,918.327820 618.357056,915.641968 613.129883,916.388855 
	C606.828613,917.289246 603.713562,923.808838 606.166931,932.315247 
z"/>
<path fill="#000000" opacity="1.000000" stroke="none" 
	d="
M371.361938,924.709717 
	C373.534058,938.942566 360.115540,948.536499 347.995300,943.834351 
	C340.212433,940.814941 335.523407,932.384766 337.165100,924.102112 
	C338.981873,914.936340 345.721283,909.157043 354.489624,909.245667 
	C363.559052,909.337341 369.858795,914.964355 371.361938,924.709717 
M350.713013,916.915100 
	C348.189087,918.135742 346.580048,920.170105 345.499664,922.701477 
	C343.581116,927.196594 344.576172,932.133484 348.074310,935.472961 
	C350.928741,938.197998 354.322601,938.703430 357.760529,937.203491 
	C362.414093,935.173279 364.184967,931.195740 363.958832,926.265076 
	C363.638367,919.279297 359.120453,915.815186 350.713013,916.915100 
z"/>
<path fill="#000000" opacity="1.000000" stroke="none" 
	d="
M739.164307,846.791748 
	C756.785461,847.351501 760.678894,864.960022 754.682678,874.360168 
	C750.682129,880.631714 742.958374,883.854248 735.684143,881.951172 
	C727.905884,879.916321 722.915161,873.449707 722.694702,865.120544 
	C722.481934,857.078674 727.245361,850.012329 734.387146,847.851379 
	C735.812622,847.420105 737.290344,847.161621 739.164307,846.791748 
M741.913330,875.474243 
	C743.329590,874.637756 744.938721,874.011963 746.125793,872.925171 
	C749.643188,869.704956 750.554504,865.545776 749.175903,861.130310 
	C747.963013,857.245605 745.099243,854.517517 741.022705,853.953186 
	C737.305359,853.438599 734.309570,855.368530 732.278137,858.473877 
	C727.312683,866.064148 731.850220,874.721008 741.913330,875.474243 
z"/>
<path fill="#000000" opacity="1.000000" stroke="none" 
	d="
M468.377197,942.525146 
	C468.205933,932.775208 468.213531,923.469727 468.097076,914.165894 
	C468.058502,911.079895 469.125061,909.510742 472.441711,909.687378 
	C475.590363,909.855103 478.765289,909.561707 481.910217,909.761536 
	C491.652985,910.380432 498.461761,917.960999 498.184784,927.710632 
	C497.894043,937.944763 491.334778,944.491699 480.960510,944.276062 
	C476.823700,944.190063 472.375488,945.938416 468.377197,942.525146 
M483.454346,937.215637 
	C488.722504,934.737915 491.327209,930.445862 490.562653,925.502441 
	C489.837097,920.811096 485.696686,917.044128 480.610229,916.448608 
	C477.286377,916.059448 475.079224,916.837219 475.315308,920.880493 
	C475.508301,924.185913 475.342316,927.511902 475.347229,930.828735 
	C475.357605,937.870483 475.360779,937.870483 483.454346,937.215637 
z"/>
<path fill="#000000" opacity="1.000000" stroke="none" 
	d="
M250.710037,868.520020 
	C250.194214,862.290283 250.815201,856.816772 255.017059,852.293152 
	C259.631409,847.325378 267.186005,845.613220 273.732178,848.124146 
	C280.267487,850.630859 283.692902,856.289673 284.494965,863.433533 
	C286.074890,877.506592 272.045288,886.122070 260.328339,880.954773 
	C255.069885,878.635742 252.166916,874.372681 250.710037,868.520020 
M268.206848,853.920776 
	C266.909576,854.136414 265.527039,854.135254 264.330170,854.606140 
	C259.688263,856.432739 257.244293,861.837585 258.344727,867.518311 
	C259.173248,871.795410 263.294647,875.493774 267.332916,875.583923 
	C271.633667,875.679932 275.594116,872.104309 276.929749,866.919739 
	C278.371796,861.322021 275.207672,856.276428 268.206848,853.920776 
z"/>
<path fill="#000000" opacity="1.000000" stroke="none" 
	d="
M390.922394,849.815063 
	C397.324860,856.028503 397.011414,861.172607 390.084839,868.397156 
	C390.759491,870.824585 392.547363,872.647522 393.773865,874.789429 
	C394.908203,876.770386 396.818146,878.329590 397.203461,881.088501 
	C393.179352,882.837646 389.971619,882.472717 387.634277,878.301880 
	C386.336090,875.985413 384.795685,873.801086 383.303680,871.598328 
	C382.514526,870.433228 381.393402,869.660156 379.915375,869.969971 
	C378.106293,870.349121 378.405396,871.925110 378.341370,873.196777 
	C378.257751,874.857361 378.240753,876.526001 378.296539,878.187805 
	C378.377747,880.605408 377.476501,881.951111 374.854675,881.931641 
	C372.262451,881.912537 370.777832,880.986938 370.797119,878.146667 
	C370.858063,869.160522 370.841919,860.173889 370.858154,851.187439 
	C370.861450,849.372559 371.248077,847.703064 373.495148,847.769043 
	C379.234985,847.937561 385.172852,846.376648 390.922394,849.815063 
M387.717987,859.291870 
	C387.880432,854.386658 384.565521,853.951111 380.985596,854.317993 
	C377.012115,854.725159 378.571472,857.967834 378.389618,860.198364 
	C378.264648,861.730652 379.175476,862.779785 380.751953,862.846130 
	C383.418915,862.958374 386.205536,863.190125 387.717987,859.291870 
z"/>
<path fill="#000000" opacity="1.000000" stroke="none" 
	d="
M232.068390,878.010132 
	C229.323456,874.829102 228.646133,869.942871 222.767136,869.345398 
	C222.767136,872.659119 222.659973,875.422302 222.799118,878.172913 
	C222.923004,880.621948 222.173798,881.983704 219.498077,881.980225 
	C217.123581,881.977173 215.675430,881.222839 215.683624,878.569702 
	C215.711945,869.407471 215.687592,860.245056 215.683136,851.082703 
	C215.682236,849.227478 216.165695,847.725403 218.405853,847.742615 
	C222.564148,847.774597 226.777603,847.461121 230.865005,848.030945 
	C235.230927,848.639526 238.459076,851.200378 239.767883,855.748352 
	C241.020462,860.100769 239.536972,863.567200 236.568665,866.630127 
	C236.007050,867.209717 235.386215,867.731873 234.554764,868.500549 
	C237.161163,872.652527 239.679337,876.663879 242.446396,881.071777 
	C237.885437,882.554810 234.405273,882.856262 232.068390,878.010132 
M223.190979,860.993652 
	C225.329849,864.206909 228.109161,863.106262 230.633484,861.835266 
	C232.434845,860.928284 233.068161,859.111694 232.185486,857.117981 
	C230.932465,854.287537 228.395645,854.056396 225.830612,854.356262 
	C222.003036,854.803711 223.150986,857.846436 223.190979,860.993652 
z"/>
<path fill="#000000" opacity="1.000000" stroke="none" 
	d="
M520.470581,874.387695 
	C517.484314,874.245239 515.978821,875.573730 515.306519,877.920837 
	C514.009949,882.447510 511.055878,882.787659 506.502258,881.072510 
	C509.480835,872.722595 512.403564,864.505798 515.346252,856.296326 
	C516.074829,854.263855 516.937927,852.277649 517.614380,850.229004 
	C518.421326,847.785034 520.339111,847.569092 522.419861,847.679443 
	C524.313049,847.779785 526.492004,847.106079 527.456421,849.725403 
	C531.280151,860.110962 535.161743,870.475281 539.123901,881.121399 
	C535.724487,882.235413 532.137634,883.175110 531.247803,879.949768 
	C529.572205,873.875977 525.478577,874.080627 520.470581,874.387695 
M521.848328,867.392090 
	C523.525208,867.238586 525.392700,867.138367 525.464783,864.909912 
	C525.532593,862.814941 524.680115,861.091125 522.096863,860.355957 
	C520.601807,862.523193 518.213562,864.419983 521.848328,867.392090 
z"/>
<path fill="#000000" opacity="1.000000" stroke="none" 
	d="
M714.720337,851.615112 
	C704.811157,862.731995 704.838928,862.711670 713.422913,874.446899 
	C714.857788,876.408569 716.881714,878.092102 717.187927,881.105896 
	C713.110352,882.721191 709.734863,882.738647 706.991577,878.504333 
	C704.951477,875.355347 703.100037,871.963013 700.090515,869.547424 
	C696.560852,870.846497 696.365479,873.570557 696.294739,876.524841 
	C696.240540,878.791016 697.290955,881.920837 693.150391,881.937439 
	C688.836914,881.954712 689.677490,878.768616 689.655823,876.245422 
	C689.590027,868.582703 689.790283,860.913940 689.551697,853.257935 
	C689.408142,848.650879 690.792664,846.554077 695.844482,848.161438 
	C697.118774,851.848755 695.652222,855.952271 696.848267,859.979126 
	C703.989258,856.924927 705.473938,844.904663 716.208740,848.039001 
	C717.192017,849.676758 715.655518,850.365234 714.720337,851.615112 
z"/>
<path fill="#000000" opacity="1.000000" stroke="none" 
	d="
M407.135986,941.123535 
	C397.758423,947.590149 386.710083,945.748291 383.781464,936.953979 
	C381.070038,928.811707 382.853027,920.162598 382.907104,911.739136 
	C382.921539,909.490356 385.197083,909.818420 386.826416,909.774902 
	C388.993683,909.716919 389.798004,911.102478 389.823547,912.942749 
	C389.890503,917.758301 389.825104,922.575623 389.815399,927.392273 
	C389.812744,928.708191 389.635345,930.056396 389.857697,931.334167 
	C390.572876,935.444336 392.838470,938.052551 397.282776,937.764771 
	C401.567413,937.487305 403.356323,934.466736 403.547363,930.675964 
	C403.823029,925.205872 403.687836,919.712708 403.647797,914.229980 
	C403.628998,911.654419 403.902527,909.682495 407.300812,909.690063 
	C410.635040,909.697571 411.137115,911.587219 411.041382,914.203003 
	C410.810913,920.500122 411.527252,926.809875 410.527710,933.106995 
	C410.069977,935.990784 409.162598,938.553772 407.135986,941.123535 
z"/>
<path fill="#000000" opacity="1.000000" stroke="none" 
	d="
M549.229797,874.617432 
	C553.248047,868.103088 558.251221,862.681030 561.587463,856.046509 
	C558.688416,853.078735 555.368103,854.556641 552.406982,854.313782 
	C550.269958,854.138428 548.415527,854.189819 548.549133,851.162170 
	C548.662170,848.600586 549.782837,847.638794 552.251709,847.665161 
	C557.743408,847.723877 563.237427,847.596130 568.728516,847.677307 
	C573.459351,847.747192 574.840454,850.238647 572.225342,854.417664 
	C569.050598,859.490967 565.496033,864.325317 562.167053,869.303955 
	C561.255554,870.667236 560.200500,872.012817 560.082520,874.111694 
	C563.259827,875.790100 566.772583,874.752869 570.123535,874.925049 
	C572.583618,875.051453 574.316956,875.534851 574.316101,878.536377 
	C574.315186,881.615234 572.432251,882.019775 570.043518,882.022522 
	C564.551147,882.028748 559.058716,882.084412 553.566345,882.079529 
	C547.337158,882.073975 546.624512,880.936768 549.229797,874.617432 
z"/>
<path fill="#000000" opacity="1.000000" stroke="none" 
	d="
M520.726379,936.488770 
	C516.530029,936.669617 512.951843,936.627136 511.832458,941.864258 
	C511.010956,945.707825 507.445099,944.215820 504.475128,944.000122 
	C504.416992,940.181213 506.241882,937.139893 507.339752,933.944519 
	C509.662750,927.183472 512.252075,920.514343 514.613220,913.765869 
	C515.527283,911.153503 516.761475,909.599304 519.910706,909.617981 
	C522.874146,909.635559 524.430847,910.652588 525.439819,913.421631 
	C528.797058,922.635681 532.358826,931.775085 535.797241,940.959900 
	C536.071472,941.692322 536.001831,942.553528 536.112549,943.538086 
	C532.030457,945.042786 528.785095,945.023682 527.692627,940.062317 
	C526.841553,936.196838 523.927185,936.487671 520.726379,936.488770 
M518.275513,930.490234 
	C520.008606,930.343140 521.890320,931.099915 523.568115,929.587769 
	C523.353638,925.846375 521.626099,922.638428 520.056519,918.529602 
	C518.876282,921.731079 517.963379,924.008911 517.205994,926.337341 
	C516.758362,927.713379 515.117798,929.348206 518.275513,930.490234 
z"/>
<path fill="#000000" opacity="1.000000" stroke="none" 
	d="
M335.739166,850.189941 
	C336.023712,848.294922 336.996826,847.771973 338.280548,847.762634 
	C343.944153,847.721497 349.608002,847.710449 355.271759,847.697815 
	C357.332977,847.693176 358.230499,848.735107 358.257324,850.798340 
	C358.285919,852.999634 357.540436,854.325989 355.147095,854.322876 
	C352.314972,854.319153 349.481964,854.308960 346.650879,854.371277 
	C344.401947,854.420715 342.272797,854.519592 342.343475,857.777832 
	C342.413361,860.999084 344.275665,861.669189 346.926971,861.640503 
	C348.926025,861.618958 350.925842,861.639709 352.925049,861.665039 
	C354.970734,861.691040 357.074799,861.603149 357.131866,864.578552 
	C357.189941,867.607910 355.165100,867.527161 353.050598,867.478943 
	C350.719543,867.425781 348.386292,867.477051 346.054230,867.456848 
	C343.691711,867.436340 342.338409,868.244568 342.343689,870.945496 
	C342.348999,873.668091 343.371429,874.986755 346.143036,874.937073 
	C348.974274,874.886292 351.807434,874.956909 354.639404,874.932312 
	C357.055267,874.911377 358.323608,875.865540 358.315979,878.482239 
	C358.308350,881.099609 357.028320,882.031799 354.617981,882.009155 
	C349.620117,881.962158 344.620575,881.877502 339.624298,881.960693 
	C336.544708,882.012024 335.597900,880.541016 335.629517,877.661865 
	C335.728302,868.665894 335.677216,859.668274 335.739166,850.189941 
z"/>
<path fill="#000000" opacity="1.000000" stroke="none" 
	d="
M647.535583,855.551208 
	C647.589050,853.607056 647.649658,852.111206 647.647949,850.615540 
	C647.645020,848.112000 649.215942,847.682373 651.281128,847.651855 
	C653.524719,847.618591 654.708557,848.444336 654.641479,850.842224 
	C654.515930,855.328125 654.465027,859.816406 654.420715,864.304138 
	C654.407654,865.629578 654.365234,866.985168 654.604614,868.277222 
	C655.452209,872.852539 658.679504,876.058411 662.110535,875.457947 
	C666.551819,874.680786 668.516174,871.569824 668.609863,867.268127 
	C668.718506,862.282288 668.660461,857.292603 668.650085,852.304565 
	C668.644958,849.850891 668.623230,847.597046 672.173645,847.680847 
	C675.466248,847.758606 675.340149,849.925842 675.344849,852.128967 
	C675.357666,858.114563 675.462524,864.103271 675.308777,870.085022 
	C675.127441,877.140076 670.220886,882.164368 663.523804,882.446289 
	C654.430481,882.829102 648.314880,878.528992 647.730103,870.929199 
	C647.348999,865.976501 647.565735,860.977722 647.535583,855.551208 
z"/>
<path fill="#000000" opacity="1.000000" stroke="none" 
	d="
M306.757202,912.225708 
	C307.249390,909.788330 308.828491,909.760620 310.332153,909.748596 
	C315.320221,909.708679 320.309021,909.754822 325.296844,909.701965 
	C327.723572,909.676270 329.035583,910.565002 328.957062,913.200256 
	C328.886475,915.569763 327.674591,916.413147 325.480530,916.378418 
	C322.987030,916.338928 320.489746,916.443298 317.998993,916.351990 
	C315.045990,916.243835 313.322784,917.071960 313.294525,920.516663 
	C313.265991,923.991760 314.977753,924.794556 317.949799,924.658203 
	C320.105469,924.559265 322.271149,924.679504 324.432343,924.700256 
	C326.575378,924.720825 327.263306,925.938965 327.262909,927.918457 
	C327.262512,929.930481 326.479187,931.076538 324.375061,931.107422 
	C324.208923,931.109863 324.041290,931.105774 323.876923,931.125610 
	C320.637299,931.518433 316.722656,929.781067 314.285980,932.200745 
	C312.002075,934.468811 313.556061,938.245728 313.367157,941.345154 
	C313.221497,943.735229 312.121399,944.544067 309.918091,944.508423 
	C307.649780,944.471680 306.645264,943.439270 306.658508,941.136108 
	C306.712952,931.658630 306.692780,922.180725 306.757202,912.225708 
z"/>
<path fill="#000000" opacity="1.000000" stroke="none" 
	d="
M407.289490,847.751099 
	C414.240204,847.683777 420.723114,847.656128 427.206024,847.658020 
	C429.566376,847.658691 432.069794,847.445007 431.978271,851.036987 
	C431.896454,854.248657 429.654724,854.353088 427.443085,854.151306 
	C423.274658,853.770935 421.850220,855.601807 422.019196,859.644836 
	C422.255066,865.287354 422.088837,870.946411 422.107727,876.598389 
	C422.116913,879.335083 422.359070,882.043457 418.224609,881.980347 
	C414.344696,881.921082 414.670959,879.337952 414.666473,876.821289 
	C414.656982,871.501709 414.405579,866.166077 414.737640,860.867371 
	C415.036743,856.095215 413.780853,853.481018 408.468109,854.151489 
	C407.003662,854.336304 405.243134,854.145813 404.930786,852.220093 
	C404.647217,850.471680 404.258759,848.438049 407.289490,847.751099 
z"/>
<path fill="#000000" opacity="1.000000" stroke="none" 
	d="
M550.648987,930.003174 
	C550.649536,927.848145 550.650818,926.187378 550.650696,924.526672 
	C550.650146,917.368225 550.658936,917.304810 543.713013,916.325012 
	C541.731750,916.045532 540.719055,915.331421 540.691956,913.232239 
	C540.663391,911.021606 541.428589,909.745300 543.806702,909.748108 
	C550.615234,909.756104 557.423767,909.740479 564.232300,909.728210 
	C566.649231,909.723877 567.297729,911.132690 567.280579,913.284668 
	C567.263977,915.374878 566.277893,916.091309 564.269104,916.353638 
	C557.344177,917.257812 557.354126,917.329651 557.349060,924.203857 
	C557.345093,929.684204 557.308533,935.164734 557.349854,940.644714 
	C557.366699,942.878662 556.980225,944.624451 554.202759,944.633911 
	C551.325195,944.643738 550.561829,943.027466 550.637939,940.461060 
	C550.736389,937.142700 550.653748,933.818970 550.648987,930.003174 
z"/>
<path fill="#000000" opacity="1.000000" stroke="none" 
	d="
M587.601990,855.059631 
	C587.630493,853.242371 587.663208,851.914368 587.673340,850.586243 
	C587.692444,848.085754 589.272278,847.664856 591.339905,847.692383 
	C593.452759,847.720520 594.314514,848.773499 594.313049,850.784973 
	C594.306274,860.084961 594.283997,869.385132 594.338074,878.684814 
	C594.353943,881.420105 592.819153,882.010742 590.507751,881.977966 
	C588.089783,881.943665 587.403076,880.621826 587.428955,878.447144 
	C587.519958,870.814819 587.545593,863.181641 587.601990,855.059631 
z"/>
<path fill="#000000" opacity="1.000000" stroke="none" 
	d="
M585.349182,926.999268 
	C585.342468,931.974243 585.281616,936.450806 585.350098,940.925415 
	C585.386902,943.330078 584.543213,944.750183 581.958618,944.707886 
	C579.390442,944.665833 578.615112,943.223938 578.633545,940.830261 
	C578.703613,931.713562 578.687012,922.596008 578.661926,913.478943 
	C578.655518,911.149780 579.311523,909.706116 582.032959,909.735046 
	C584.767822,909.764099 585.353638,911.284546 585.337585,913.570251 
	C585.307373,917.879944 585.341492,922.190063 585.349182,926.999268 
z"/>
</svg>