<?xml version="1.0" encoding="UTF-8"?>
<svg version="1.1" xmlns="http://www.w3.org/2000/svg" width="129" height="92">
<path d="M0 0 C42.57 0 85.14 0 129 0 C129 30.36 129 60.72 129 92 C86.43 92 43.86 92 0 92 C0 61.64 0 31.28 0 0 Z " fill="#FBFCFB" transform="translate(0,0)"/>
<path d="M0 0 C3.01187134 -0.36076355 3.01187134 -0.36076355 6.92822266 -0.34057617 C7.64052536 -0.34101425 8.35282806 -0.34145233 9.0867157 -0.34190369 C11.44610812 -0.3398101 13.80479391 -0.31645325 16.1640625 -0.29296875 C17.79787813 -0.2873748 19.43169878 -0.28310375 21.06552124 -0.28010559 C25.36960702 -0.26864094 29.67338998 -0.23916008 33.97735596 -0.20599365 C39.13932029 -0.16993761 44.30138577 -0.15613931 49.46343994 -0.13863373 C57.30917069 -0.10952342 65.15423677 -0.05204806 73 0 C73 16.17 73 32.34 73 49 C40.99 49 8.98 49 -24 49 C-24 37.45 -24 25.9 -24 14 C-23.01 14 -22.02 14 -21 14 C-21 24.56 -21 35.12 -21 46 C9.03 46 39.06 46 70 46 C70 31.81 70 17.62 70 3 C46.24 3 22.48 3 -2 3 C-1.34 2.01 -0.68 1.02 0 0 Z " fill="#75B228" transform="translate(50,38)"/>
<path d="M0 0 C24.09 0.33 48.18 0.66 73 1 C73 15.19 73 29.38 73 44 C42.97 44 12.94 44 -18 44 C-18 43.67 -18 43.34 -18 43 C-13.05 42.505 -13.05 42.505 -8 42 C-9.98 41.67 -11.96 41.34 -14 41 C-14 39.68 -14 38.36 -14 37 C-4.76 37 4.48 37 14 37 C14 37.66 14 38.32 14 39 C14.66 39 15.32 39 16 39 C16 38.34 16 37.68 16 37 C17.89685547 37.01740234 17.89685547 37.01740234 19.83203125 37.03515625 C21.49218602 37.04453566 23.15234239 37.0536357 24.8125 37.0625 C26.06256836 37.07506836 26.06256836 37.07506836 27.33789062 37.08789062 C28.54155273 37.09272461 28.54155273 37.09272461 29.76953125 37.09765625 C30.87711792 37.10551147 30.87711792 37.10551147 32.00708008 37.11352539 C34.21057409 37.07523213 34.21057409 37.07523213 37 36 C39.08935547 36.11889648 39.08935547 36.11889648 41.4921875 36.43359375 C47.0552087 37.06350328 52.5320292 37.11355942 58.125 37.0625 C59.08148438 37.05798828 60.03796875 37.05347656 61.0234375 37.04882812 C63.34902758 37.03720017 65.6744776 37.02086102 68 37 C68 38.32 68 39.64 68 41 C67.14019531 40.98839844 66.28039062 40.97679687 65.39453125 40.96484375 C64.21246094 40.95582031 63.03039062 40.94679687 61.8125 40.9375 C60.66394531 40.92589844 59.51539062 40.91429687 58.33203125 40.90234375 C52.54458348 41.03280921 46.77186677 41.55601025 41 42 C51.23 42.33 61.46 42.66 72 43 C72 29.47 72 15.94 72 2 C48.24 2 24.48 2 0 2 C0 1.34 0 0.68 0 0 Z " fill="#CEE3B5" transform="translate(47,40)"/>
<path d="M0 0 C5.88364982 7.22084296 5.80862813 15.17346469 5.24707031 24.09375 C4.58384634 29.21079819 1.69537548 31.68137463 -2.25 34.75 C-4.65003033 35.84092288 -6.92384373 36.60869273 -9.4375 37.375 C-13.92303802 38.77766824 -16.60782719 40.78178477 -20 44 C-21 43 -21 43 -21.0625 40.4375 C-21.041875 39.633125 -21.02125 38.82875 -21 38 C-20.67 38.99 -20.34 39.98 -20 41 C-12.52933779 36.33557639 -7.80198112 30.40594336 -5 22 C-5.40992188 22.68707031 -5.81984375 23.37414062 -6.2421875 24.08203125 C-7.05042969 25.43361328 -7.05042969 25.43361328 -7.875 26.8125 C-8.40867187 27.70582031 -8.94234375 28.59914063 -9.4921875 29.51953125 C-10.61883092 31.37294724 -11.79686611 33.19529917 -13 35 C-13.99 34.67 -14.98 34.34 -16 34 C-17.65548023 29.0335593 -17.76947949 24.8293286 -15.7578125 20.046875 C-13.9767865 16.95976326 -12.07439766 14.64147331 -9.625 12.0625 C-6.0542198 8.21211548 -2.93224775 4.35107731 0 0 Z " fill="#72B124" transform="translate(47,5)"/>
<path d="M0 0 C0.66 0 1.32 0 2 0 C2.23710693 0.50974365 2.47421387 1.0194873 2.71850586 1.54467773 C3.78925593 3.84334017 4.86333195 6.14043294 5.9375 8.4375 C6.31068359 9.23994141 6.68386719 10.04238281 7.06835938 10.86914062 C7.42607422 11.63291016 7.78378906 12.39667969 8.15234375 13.18359375 C8.48226318 13.89056396 8.81218262 14.59753418 9.15209961 15.32592773 C9.88534557 16.9891159 9.88534557 16.9891159 11 18 C13.97 12.06 16.94 6.12 20 0 C22.27032597 2.27032597 22.61795635 3.56120106 23.47265625 6.61328125 C23.86227539 7.9909668 23.86227539 7.9909668 24.25976562 9.39648438 C24.52466797 10.35876953 24.78957031 11.32105469 25.0625 12.3125 C25.33126953 13.26318359 25.60003906 14.21386719 25.87695312 15.19335938 C27.0686318 19.44595832 28.17373198 23.65930637 29 28 C27.68 28 26.36 28 25 28 C24.34956281 26.27255984 23.70485156 24.5429631 23.0625 22.8125 C22.70285156 21.84957031 22.34320313 20.88664062 21.97265625 19.89453125 C21 17 21 17 20 12 C17.03 17.28 14.06 22.56 11 28 C7.20815013 22.94420017 4.7774242 17.67828948 2 12 C0.35 17.28 -1.3 22.56 -3 28 C-4.65 28 -6.3 28 -8 28 C-5.78952972 18.51115195 -2.97604874 9.26927435 0 0 Z " fill="#403E3F" transform="translate(64,46)"/>
<path d="M0 0 C12 0 12 0 15.75 1.625 C18 4 18 4 18.625 7 C17.62855851 11.78291916 14.9303365 13.37977567 11 16 C11.5775 16.71027344 12.155 17.42054687 12.75 18.15234375 C13.4925 19.07144531 14.235 19.99054688 15 20.9375 C16.11375 22.31228516 16.11375 22.31228516 17.25 23.71484375 C19 26 19 26 19 27 C16.76171875 27.30859375 16.76171875 27.30859375 14 27 C11.83203125 24.84765625 11.83203125 24.84765625 9.8125 22.0625 C7.38385079 18.47282862 7.38385079 18.47282862 4 16 C4 19.63 4 23.26 4 27 C2.68 27 1.36 27 0 27 C0 18.09 0 9.18 0 0 Z " fill="#474546" transform="translate(34,47)"/>
<path d="M0 0 C7.74745312 0.55338951 13.11274664 2.47365331 19 7.625 C21.6813217 12.14973037 21.61947012 15.85839797 21 21 C20.67 21.99 20.34 22.98 20 24 C19.34 24 18.68 24 18 24 C17.34 22.68 16.68 21.36 16 20 C16.33 21.65 16.66 23.3 17 25 C12.27572737 24.58315241 9.06037625 22.52831561 6 19 C4.66555034 16.19160268 3.91639555 13.32782581 3.1875 10.3125 C2.78618163 8.78749021 2.38388387 7.26273772 1.98046875 5.73828125 C1.65691406 4.50464844 1.33335938 3.27101563 1 2 C0.67 1.34 0.34 0.68 0 0 Z " fill="#72B124" transform="translate(7,17)"/>
<path d="M0 0 C5.94 0 11.88 0 18 0 C18 1.32 18 2.64 18 4 C13.71 4 9.42 4 5 4 C5 6.31 5 8.62 5 11 C9.29 11 13.58 11 18 11 C18 12.32 18 13.64 18 15 C13.71 15 9.42 15 5 15 C5 19.29 5 23.58 5 28 C3.35 28 1.7 28 0 28 C0 18.76 0 9.52 0 0 Z " fill="#696868" transform="translate(97,46)"/>
<path d="M0 0 C3.96 0 7.92 0 12 0 C12 0.99 12 1.98 12 3 C9.36 3 6.72 3 4 3 C4 6.3 4 9.6 4 13 C5.32 13.33 6.64 13.66 8 14 C6.68 14.33 5.36 14.66 4 15 C4 18.96 4 22.92 4 27 C2.68 27 1.36 27 0 27 C0 18.09 0 9.18 0 0 Z " fill="#383637" transform="translate(34,47)"/>
<path d="M0 0 C1.05960937 0.10828125 1.05960937 0.10828125 2.140625 0.21875 C12.43404693 1.14981329 22.67294167 1.09266553 33 1 C33 2.32 33 3.64 33 5 C22.11 5 11.22 5 0 5 C0 3.35 0 1.7 0 0 Z " fill="#B4B3B3" transform="translate(82,76)"/>
<path d="M0 0 C5.61 0 11.22 0 17 0 C17 0.99 17 1.98 17 3 C12.38 3 7.76 3 3 3 C3 5.31 3 7.62 3 10 C2.34 10 1.68 10 1 10 C1 11.32 1 12.64 1 14 C1.66 14 2.32 14 3 14 C3 17.96 3 21.92 3 26 C2.01 26 1.02 26 0 26 C0 17.42 0 8.84 0 0 Z " fill="#312F30" transform="translate(98,47)"/>
<path d="M0 0 C0.99 0 1.98 0 3 0 C3 10.89 3 21.78 3 33 C2.01 33 1.02 33 0 33 C0 22.11 0 11.22 0 0 Z " fill="#6EAF1E" transform="translate(26,52)"/>
<path d="M0 0 C2.64 0 5.28 0 8 0 C8 0.66 8 1.32 8 2 C8.66 2 9.32 2 10 2 C10 1.34 10 0.68 10 0 C15.61 0 21.22 0 27 0 C26.67 1.32 26.34 2.64 26 4 C17.42 4 8.84 4 0 4 C0 2.68 0 1.36 0 0 Z " fill="#989797" transform="translate(53,77)"/>
<path d="M0 0 C1 3 1 3 -0.0390625 5.5234375 C-2.9053472 10.67710211 -5.49506801 15.08782222 -10 19 C-10.680625 19.78375 -11.36125 20.5675 -12.0625 21.375 C-12.701875 21.91125 -13.34125 22.4475 -14 23 C-16.25 22.75 -16.25 22.75 -18 22 C-18 20.68 -18 19.36 -18 18 C-17.34 18 -16.68 18 -16 18 C-15.67 14.7 -15.34 11.4 -15 8 C-14.67 8 -14.34 8 -14 8 C-14 9.65 -14 11.3 -14 13 C-13.34 13 -12.68 13 -12 13 C-11.67 13.99 -11.34 14.98 -11 16 C-10.34 16.33 -9.68 16.66 -9 17 C-8.74476562 16.47921875 -8.48953125 15.9584375 -8.2265625 15.421875 C-6.66311906 12.33482108 -5.01918305 9.29478342 -3.375 6.25 C-3.05015625 5.64800781 -2.7253125 5.04601562 -2.390625 4.42578125 C-1.59429415 2.95022703 -0.79722161 1.47507314 0 0 Z " fill="#E5F0D6" transform="translate(43,23)"/>
<path d="M0 0 C5.41538462 -0.36923077 5.41538462 -0.36923077 8.375 1.5 C8.91125 1.995 9.4475 2.49 10 3 C9.6875 4.875 9.6875 4.875 9 7 C5.5647952 9.29013653 4.014669 9.17842973 0 9 C0 6.03 0 3.06 0 0 Z " fill="#F4F4F4" transform="translate(38,50)"/>
<path d="M0 0 C1.32 0.33 2.64 0.66 4 1 C2.76123355 6.69305433 1.43723997 12.35370013 0 18 C-1.65 18 -3.3 18 -5 18 C-1.92482916 5.33029613 -1.92482916 5.33029613 0 0 Z " fill="#424041" transform="translate(61,56)"/>
<path d="M0 0 C6.27 0 12.54 0 19 0 C19 1.32 19 2.64 19 4 C12.73 4 6.46 4 0 4 C0 2.68 0 1.36 0 0 Z " fill="#9F9E9E" transform="translate(33,77)"/>
<path d="M0 0 C0.66 0 1.32 0 2 0 C2.67184618 2.10251861 3.33730968 4.20707763 4 6.3125 C4.37125 7.48425781 4.7425 8.65601562 5.125 9.86328125 C6 13 6 13 6 16 C4.68 16 3.36 16 2 16 C1.29911844 14.25531628 0.61475991 12.50398839 -0.0625 10.75 C-0.44535156 9.77546875 -0.82820313 8.8009375 -1.22265625 7.796875 C-2.014715 4.94705557 -2.08487377 3.70288552 -1 1 C-0.67 0.67 -0.34 0.34 0 0 Z " fill="#444243" transform="translate(87,58)"/>
<path d="M0 0 C2.0836309 0.14151828 4.16689938 0.28837936 6.25 0.4375 C7.99023438 0.55931641 7.99023438 0.55931641 9.765625 0.68359375 C12.30977376 0.93247787 14.55953248 1.28114942 17 2 C16.67 2.33 16.34 2.66 16 3 C16.33 3.66 16.66 4.32 17 5 C11.39 5 5.78 5 0 5 C0 3.35 0 1.7 0 0 Z " fill="#999898" transform="translate(82,76)"/>
<path d="M0 0 C2.5 1.125 2.5 1.125 5 3 C5.3125 6.1875 5.3125 6.1875 5 9 C4.01 9.495 4.01 9.495 3 10 C3 9.34 3 8.68 3 8 C2.34 8 1.68 8 1 8 C0.71125 7.38125 0.4225 6.7625 0.125 6.125 C-0.93720042 3.86674235 -0.93720042 3.86674235 -3 2 C-2.01 1.34 -1.02 0.68 0 0 Z " fill="#434142" transform="translate(47,48)"/>
<path d="M0 0 C3.63 0 7.26 0 11 0 C10.67 1.32 10.34 2.64 10 4 C7.03 4 4.06 4 1 4 C0.67 2.68 0.34 1.36 0 0 Z " fill="#999898" transform="translate(69,77)"/>
<path d="M0 0 C2.31 0 4.62 0 7 0 C7 1.32 7 2.64 7 4 C4.69 4 2.38 4 0 4 C0 2.68 0 1.36 0 0 Z " fill="#A1A0A1" transform="translate(33,77)"/>
<path d="M0 0 C3.96 0 7.92 0 12 0 C11.67 1.32 11.34 2.64 11 4 C9.68 3.67 8.36 3.34 7 3 C7 2.34 7 1.68 7 1 C6.34 1 5.68 1 5 1 C5 1.66 5 2.32 5 3 C3.68 3 2.36 3 1 3 C0.67 2.01 0.34 1.02 0 0 Z " fill="#8B8A8B" transform="translate(103,77)"/>
<path d="M0 0 C0.66 0 1.32 0 2 0 C2.66 3.3 3.32 6.6 4 10 C2.68 10 1.36 10 0 10 C0 6.7 0 3.4 0 0 Z " fill="#4A4849" transform="translate(89,64)"/>
<path d="M0 0 C1.65 0 3.3 0 5 0 C5 1.32 5 2.64 5 4 C3.35 4 1.7 4 0 4 C0 2.68 0 1.36 0 0 Z " fill="#8B8A8A" transform="translate(41,77)"/>
<path d="M0 0 C0 3 0 3 -1.3125 4.38671875 C-2.875 5.59114583 -4.4375 6.79557292 -6 8 C-7 7 -7 7 -7.0625 4.4375 C-7.041875 3.633125 -7.02125 2.82875 -7 2 C-6.67 2.99 -6.34 3.98 -6 5 C-4.02 3.35 -2.04 1.7 0 0 Z " fill="#93C357" transform="translate(33,41)"/>
<path d="M0 0 C1.32 0 2.64 0 4 0 C3.67 1.32 3.34 2.64 3 4 C1.02 4 -0.96 4 -3 4 C-2.01 3.67 -1.02 3.34 0 3 C0 2.01 0 1.02 0 0 Z " fill="#A6A5A5" transform="translate(76,77)"/>
<path d="M0 0 C1.98 0 3.96 0 6 0 C6.33 0.99 6.66 1.98 7 3 C4 4 4 4 1.8125 3.0625 C1.214375 2.711875 0.61625 2.36125 0 2 C0 1.34 0 0.68 0 0 Z " fill="#868585" transform="translate(63,77)"/>
<path d="M0 0 C0.66 0 1.32 0 2 0 C2 1.98 2 3.96 2 6 C1.01 6.495 1.01 6.495 0 7 C0 6.34 0 5.68 0 5 C-0.66 5 -1.32 5 -2 5 C-1 2 -1 2 0 0 Z " fill="#3D3B3C" transform="translate(50,51)"/>
<path d="M0 0 C1.32 0.66 2.64 1.32 4 2 C4 2.99 4 3.98 4 5 C2.35 5 0.7 5 -1 5 C-0.67 3.35 -0.34 1.7 0 0 Z " fill="#615F60" transform="translate(57,69)"/>
</svg>
