<?xml version="1.0" encoding="UTF-8"?>
<svg version="1.1" xmlns="http://www.w3.org/2000/svg" width="1024" height="1024">
<path d="M0 0 C337.92 0 675.84 0 1024 0 C1024 337.92 1024 675.84 1024 1024 C686.08 1024 348.16 1024 0 1024 C0 686.08 0 348.16 0 0 Z " fill="#FEFDFC" transform="translate(0,0)"/>
<path d="M0 0 C12.90862255 10.04829468 20.87115856 26.1528409 24 42 C25.03322978 54.05434745 23.52010657 70.05039122 15.50561523 79.82202148 C8.52464184 88.87074288 10.32279469 100.36234145 10.5625 111.1875 C10.58405548 113.29880251 10.60295856 115.41013385 10.61914062 117.52148438 C10.6942868 129.30759953 10.6942868 129.30759953 12 141 C12.99 141 13.98 141 15 141 C17.06947626 138.96027656 17.06947626 138.96027656 19.125 136.25 C19.82882812 135.36828125 20.53265625 134.4865625 21.2578125 133.578125 C21.65613281 133.04509766 22.05445313 132.51207031 22.46484375 131.96289062 C23.67763471 130.41218463 24.96876378 128.92276779 26.28515625 127.45898438 C33.16463882 119.35684495 34.16150175 113.44581363 33.75 103 C33.3049163 86.68026423 37.90375243 73.30300626 49.3125 61.25 C58.117954 53.08459002 74.27990403 41.43200427 86.8125 40.875 C87.534375 40.91625 88.25625 40.9575 89 41 C90.53295429 45.59886286 90.18446275 50.182917 90.1875 55 C90.19974609 55.99128906 90.21199219 56.98257813 90.22460938 58.00390625 C90.25980016 75.99812887 85.19684887 92.16372187 73.0625 105.6875 C66.83012683 111.6424045 57.92672673 116.41163247 49.57226562 118.65063477 C40.79850475 121.23666532 37.58043585 127.78026594 33.375 135.3125 C32.63405686 136.59295594 31.89096275 137.87216956 31.14575195 139.15014648 C29.06024703 142.74666201 27.02724702 146.3703432 25 150 C24.08985998 151.59896757 23.17970677 153.19792763 22.26953125 154.796875 C15.91904442 166.19894901 12.37230361 175.83507907 12.57421875 188.98046875 C12.57750687 190.19213211 12.58079498 191.40379547 12.58418274 192.6521759 C12.59981422 196.4976587 12.64374625 200.34224607 12.6875 204.1875 C12.69900841 206.74803964 12.70878851 209.30858765 12.71679688 211.86914062 C12.77785961 224.27510408 12.96685221 236.63257755 14 249 C14.268125 248.45472656 14.53625 247.90945313 14.8125 247.34765625 C17.05970806 243.02325917 19.38349613 239.40689679 22.74609375 235.8671875 C27.18379102 230.95950283 30.66353722 225.72481833 34.0625 220.0625 C34.65482422 219.13759766 35.24714844 218.21269531 35.85742188 217.25976562 C39.81423579 210.68657184 40.62983076 206.46004146 39 199 C36.21494325 180.26598518 38.62400819 164.05246992 49.8828125 148.37890625 C63.02301255 131.45123677 63.02301255 131.45123677 72 128 C74.0078125 127.96875 74.0078125 127.96875 76 129 C77.41338275 131.19760146 78.5280267 133.21565668 79.625 135.5625 C80.07359375 136.45678711 80.07359375 136.45678711 80.53125 137.36914062 C87.1484186 151.02803068 86.63557069 166.98516467 82.31640625 181.30859375 C77.61974259 194.47876337 69.78084621 203.30052521 57.25 209.4375 C56.20328125 209.88996094 55.1565625 210.34242188 54.078125 210.80859375 C45.77210023 216.72189311 41.91657661 228.89710691 37.5625 237.9375 C37.23228851 238.62186127 36.90207703 239.30622253 36.56185913 240.01132202 C31.38168157 250.78368496 26.46026679 261.53320821 23 273 C22.78279297 273.69673828 22.56558594 274.39347656 22.34179688 275.11132812 C18.19405459 288.89908305 18.56854585 302.71886758 19 317 C25.98288683 311.89927299 32.03209674 306.18266287 38.0625 300 C43.85606742 294.08729601 49.67060975 288.33925786 56 283 C56.59031006 282.49887695 57.18062012 281.99775391 57.78881836 281.48144531 C58.93296158 280.51163089 60.07811787 279.54301017 61.22436523 278.57568359 C78.62955087 263.87446973 78.62955087 263.87446973 89 244 C89.32452148 242.97688721 89.64904297 241.95377441 89.98339844 240.8996582 C92.66280626 231.83236007 93.54444329 223.54036104 93.55651855 214.11010742 C93.56680117 210.26776857 93.65112087 206.42719467 93.73828125 202.5859375 C93.75498871 201.83556213 93.77169617 201.08518677 93.78890991 200.31207275 C94.23940136 182.95051156 97.7608164 165.74059636 103.62109375 149.3984375 C106.76651182 140.503915 108.40613005 132.7243158 108.5625 123.25 C108.79850601 109.10950157 111.83057443 98.17038073 121 87 C122.15628906 85.51886719 122.15628906 85.51886719 123.3359375 84.0078125 C131.85302676 73.8564063 147.12387526 66.39601111 160 64 C162.67565299 63.9076928 165.32112737 63.94625282 168 64 C168.40648768 84.12114019 166.91681333 101.5866891 154 118 C153.37738281 118.83015625 152.75476563 119.6603125 152.11328125 120.515625 C146.60255562 126.99403812 139.28594081 131.44117762 131.74462891 135.17626953 C124.5218248 138.83509152 119.95944186 141.85241837 117.16796875 149.8203125 C116.77712093 151.21311465 116.38794203 152.6063857 116 154 C115.61062256 155.2060791 115.61062256 155.2060791 115.21337891 156.43652344 C107.68627174 180.17220313 108.96463498 205.37766322 109 230 C110.28533364 229.0457138 111.56934019 228.08963994 112.8527832 227.1328125 C113.92554253 226.33447998 113.92554253 226.33447998 115.01997375 225.52001953 C117.23907722 223.81646605 119.23275322 222.00059372 121.1875 220 C121.79980469 219.38125 122.41210938 218.7625 123.04296875 218.125 C123.68878906 217.42375 124.33460938 216.7225 125 216 C125.90105469 215.14277344 126.80210937 214.28554688 127.73046875 213.40234375 C131.16140631 209.22822159 130.415532 204.69875353 130.125 199.5625 C129.54961451 179.08554584 134.62518993 163.00455168 148.6875 147.8125 C155.67705296 141.13693086 170.80974224 130 181 130 C181.64772261 152.37632484 181.97606895 174.0439508 167 192.1875 C162.36309658 197.07632347 157.06461694 200.53812528 151.33203125 203.9921875 C143.64902708 208.60655512 143.64902708 208.60655512 139 216 C137.38828697 218.38864136 135.71000063 220.71915997 134.01171875 223.046875 C131.14873949 227.24961737 128.58520136 231.62249908 126 236 C151.7924334 225.68191061 151.7924334 225.68191061 174.5859375 210.0546875 C177 208 177 208 179.9140625 205.9453125 C189.02372788 198.9988922 189.86510637 191.89885414 191.58300781 181.22363281 C194.39627137 166.22175667 205.59032968 152.92951934 217.89453125 144.49462891 C226.98743631 138.4995518 237.61424116 132.77373884 248.75 132.9375 C249.54921875 132.94652344 250.3484375 132.95554688 251.171875 132.96484375 C252.07679688 132.98224609 252.07679688 132.98224609 253 133 C254.24691411 151.28807358 247.9401186 168.947974 236.00390625 182.83203125 C235.34261719 183.54746094 234.68132813 184.26289063 234 185 C233.43152344 185.62261719 232.86304688 186.24523437 232.27734375 186.88671875 C225.46315095 193.55114907 211.83336753 201.70289706 202.125 202.125 C198.04611039 203.26708909 196.84615779 205.15433578 194.21484375 208.3671875 C177.99451939 227.64849018 157.51311082 239.9431103 134.5 249.6875 C123.05628427 254.56074165 114.46355506 261.04204835 105.55932617 269.55175781 C103.88245935 271.10916724 102.15394496 272.59150942 100.4140625 274.078125 C95.11912914 278.68601581 90.17006518 283.64389361 85.2097168 288.60498047 C83.57424118 290.23827448 81.93092292 291.8633847 80.28710938 293.48828125 C73.72610472 300.01473218 67.74990639 306.73910861 62 314 C61.13689168 315.02778518 60.26850305 316.05120751 59.390625 317.06640625 C43.04823028 336.12259279 24.31656696 358.97049908 24.75 385.2578125 C24.76274963 386.78088013 24.76274963 386.78088013 24.77575684 388.3347168 C24.96941924 403.41818793 25.7111728 418.49316949 26.39068604 433.56085205 C26.57551262 437.68493078 26.75425713 441.80927329 26.93359375 445.93359375 C27.28328708 453.95599117 27.63944272 461.97808352 28 470 C31.63296414 468.23135652 34.63932941 466.75023022 37.4375 463.8125 C38.0253125 463.19761719 38.613125 462.58273437 39.21875 461.94921875 C41.58174115 459.36340168 43.90420834 456.74916648 46.1796875 454.0859375 C47.42063505 452.66390747 48.69895595 451.27384732 50.0078125 449.9140625 C56.25808061 443.3310805 61.87963622 435.5085618 63 426.25 C62.65827899 420.33632809 59.03168614 415.87914333 55.86181641 411.09033203 C48.3948226 399.71547837 46.14889399 387.43632067 48 374 C51.18284376 361.5263451 58.6514681 350.09213596 65 339 C67.45530834 339.37082683 68.67672158 339.61779565 70.30859375 341.54711914 C70.68113281 342.20317139 71.05367187 342.85922363 71.4375 343.53515625 C72.06785156 344.62666992 72.06785156 344.62666992 72.7109375 345.74023438 C73.13632812 346.50658203 73.56171875 347.27292969 74 348.0625 C74.42539062 348.80177734 74.85078125 349.54105469 75.2890625 350.30273438 C76.55430842 352.52079586 77.78372318 354.75475697 79 357 C79.56074219 358.0206958 79.56074219 358.0206958 80.1328125 359.06201172 C84.1500231 366.66681455 85.37255716 373.69403121 85.3125 382.25 C85.30758545 383.08192871 85.3026709 383.91385742 85.29760742 384.77099609 C85.07348672 396.62525699 82.13853867 406.64443902 74.625 415.9375 C72.25858551 420.39728115 73.11937193 424.15654562 74 429 C79.96412021 428.2983388 84.0702585 425.19651059 88.125 420.9375 C95.76228906 411.26351252 96.69876911 397.84057792 98.6875 386.0625 C99.14749016 383.39532812 99.61028637 380.72865771 100.07392883 378.06211853 C100.35941067 376.414292 100.64224312 374.76600362 100.92204285 373.11720276 C101.89848486 367.39639631 101.89848486 367.39639631 102.51594543 364.9853363 C103.64346625 360.3608411 103.89399719 356.75773602 101.73046875 352.50390625 C100.69160355 350.84323853 99.61903282 349.20299209 98.5078125 347.58984375 C93.28933442 338.62649928 93.59612565 326.29017487 95.8046875 316.39453125 C102.62175627 297.09517449 118.12194233 282.69035731 135 272 C138.20718282 273.60359141 138.416166 276.45129559 139.5625 279.75 C139.99691406 280.98234375 140.43132812 282.2146875 140.87890625 283.484375 C146.01792285 299.59975807 143.34648077 318.05298149 136 333 C134.48240229 335.79087628 132.83800828 338.41034617 131 341 C130.319375 341.969375 129.63875 342.93875 128.9375 343.9375 C125.45495473 348.01737504 120.8575924 351.0061187 116.546875 354.14453125 C114.18085178 355.76743079 114.18085178 355.76743079 113 357 C112.84046248 359.10206329 112.74841262 361.20929429 112.68359375 363.31640625 C112.64161865 364.63181396 112.59964355 365.94722168 112.55639648 367.30249023 C112.5164888 368.72248577 112.47686124 370.14248921 112.4375 371.5625 C112.3947466 372.98706457 112.35185943 374.41162514 112.30883789 375.83618164 C112.0343828 385.22529625 111.86298452 394.60682771 112 404 C118.9095149 401.29266604 124.48506783 397.27576496 130.1875 392.625 C130.85201172 392.08399658 131.51652344 391.54299316 132.20117188 390.9855957 C138.26077358 385.95122204 144.1221314 380.69780509 148.625 374.1875 C149.15351562 373.43855469 149.68203125 372.68960937 150.2265625 371.91796875 C154.98355836 364.0909293 158.34337257 355.87053217 161.375 347.25 C161.9460144 345.63484497 161.9460144 345.63484497 162.52856445 343.98706055 C163.69599522 340.66152627 164.8489425 337.3312322 166 334 C166.3707666 332.94312988 166.7415332 331.88625977 167.12353516 330.79736328 C168.16597042 327.80911149 169.18134469 324.81313533 170.1875 321.8125 C170.50315918 320.91112305 170.81881836 320.00974609 171.14404297 319.08105469 C172.81845226 313.95323731 173.43904837 311.04515486 171 306 C170.66444092 305.34604248 170.32888184 304.69208496 169.9831543 304.01831055 C167.01639577 297.92001093 166.36496989 292.87650531 166.5 286.125 C166.51281006 285.15191895 166.52562012 284.17883789 166.53881836 283.17626953 C166.73840776 276.11542428 167.59955506 270.27619215 171 264 C171.72896484 262.54980469 171.72896484 262.54980469 172.47265625 261.0703125 C179.92444831 247.22372016 192.04610325 235.39153784 206 228 C206.99 228 207.98 228 209 228 C209.79780561 229.99755909 210.58792425 231.99818885 211.375 234 C211.81585937 235.11375 212.25671875 236.2275 212.7109375 237.375 C217.97744791 252.18506563 217.94527952 268.7960605 211.55859375 283.265625 C205.43695558 295.48049466 196.69565237 304.27170675 185.3671875 311.734375 C182.34782536 314.62419355 181.67838112 317.41665949 180.875 321.375 C180.71668701 322.08180908 180.55837402 322.78861816 180.39526367 323.5168457 C180.07177505 324.97213751 179.75658382 326.42929848 179.44970703 327.88818359 C179.035331 329.83408624 178.58007186 331.77116357 178.12109375 333.70703125 C176.31940081 341.46214433 175.3829511 349.05046345 175 357 C193.83311129 340.65202104 204.84958358 321.47000393 216.0625 299.5 C216.83370363 297.99594976 217.60518723 296.49204305 218.37695312 294.98828125 C219.88098257 292.05573965 221.37827357 289.11991054 222.87011719 286.18115234 C224.2496692 283.46397881 225.64647454 280.75699645 227.05957031 278.05712891 C227.6921861 276.8324233 228.32467987 275.60765465 228.95703125 274.3828125 C229.50721924 273.32980957 230.05740723 272.27680664 230.62426758 271.19189453 C232.67213716 266.44054637 233.39664824 261.69588503 234.27734375 256.6015625 C236.36536914 246.1952954 241.49778903 238.21472744 248 230 C248.42023437 229.41476562 248.84046875 228.82953125 249.2734375 228.2265625 C256.32661373 218.772305 268.68304013 213.25771993 280 211 C282.24353937 210.91826655 284.48936892 210.89249723 286.734375 210.90234375 C288.02988281 210.90556641 289.32539062 210.90878906 290.66015625 210.91210938 C292.02343817 210.92046402 293.38671942 210.92892896 294.75 210.9375 C296.12890465 210.94251832 297.50781104 210.94708065 298.88671875 210.95117188 C302.25785659 210.96295907 305.62890628 210.97941365 309 211 C305.36168306 228.88921777 297.09656244 245.80958982 282.125 256.8125 C274.12914041 261.97528984 266.0504506 265.16455932 256.80273438 267.31469727 C247.40958685 269.4049886 247.40958685 269.4049886 239.39453125 274.34375 C237.76346523 277.52364343 236.89365594 280.53618957 236 284 C234.8510718 287.3965463 233.6053077 290.75722733 232.375 294.125 C231.88628418 295.51392456 231.88628418 295.51392456 231.38769531 296.9309082 C227.81224344 306.95548451 223.29082516 316.50124107 218.734375 326.109375 C216.27087506 331.32680135 214.06326538 336.6127512 212 342 C231.39955312 333.85535919 231.39955312 333.85535919 250.65380859 325.375 C253.41550252 324.13134086 256.12405116 322.95864961 259 322 C259.7126744 320.35248144 260.37153379 318.68144356 261 317 C269.20582155 303.83526471 279.93425144 294.87827632 294.734375 290.12109375 C297.17066588 289.56633325 299.51213566 289.22213074 302 289 C302.8353125 288.91878906 303.670625 288.83757812 304.53125 288.75390625 C312.78787645 288.35321703 320.17031242 290.67225504 328 293 C329.03769531 293.26167969 330.07539062 293.52335937 331.14453125 293.79296875 C332.04558594 294.02628906 332.94664062 294.25960938 333.875 294.5 C335.04675781 294.79390625 335.04675781 294.79390625 336.2421875 295.09375 C338 296 338 296 338.72290039 297.83325195 C339.06182031 300.48339668 338.60039983 301.33923196 337.19140625 303.57421875 C336.77818115 304.23760254 336.36495605 304.90098633 335.93920898 305.58447266 C335.25773804 306.62547119 335.25773804 306.62547119 334.5625 307.6875 C334.10238525 308.40212402 333.64227051 309.11674805 333.16821289 309.85302734 C324.33639522 323.32166395 314.37519444 331.99022786 298.41015625 335.59277344 C286.9119363 337.53554399 274.61405324 336.92246914 263.4609375 333.55859375 C259.03892053 332.55486609 255.9569637 334.41940437 252.09765625 336.51953125 C250.65410767 337.30203247 250.65410767 337.30203247 249.18139648 338.1003418 C248.15216064 338.665354 247.1229248 339.23036621 246.0625 339.8125 C244.99652588 340.39491455 243.93055176 340.9773291 242.83227539 341.57739258 C239.55022744 343.37669161 236.27384856 345.18582914 233 347 C232.03030273 347.5372168 231.06060547 348.07443359 230.06152344 348.62792969 C206.00772233 361.8194953 206.00772233 361.8194953 184.87329102 379.11035156 C184.33470963 379.65129456 183.79612823 380.19223755 183.2412262 380.74957275 C182.62681923 381.36853424 182.62681923 381.36853424 182 382 C190.23292526 382.18673422 198.46494187 382.32818809 206.69947243 382.41449738 C210.52470191 382.45595764 214.34846556 382.51202955 218.17285156 382.60351562 C221.8753397 382.69151446 225.5764337 382.73849232 229.27988815 382.75901794 C230.68082978 382.77361179 232.08170946 382.802103 233.48204422 382.84584045 C243.55020683 383.14731669 249.77399919 381.2407788 258.04866028 375.90220642 C261.67230047 373.56668686 264.95440994 372.31861894 269.0625 371.0625 C270.27035156 370.68222656 271.47820313 370.30195313 272.72265625 369.91015625 C288.1682782 365.62072846 301.47857039 368.61520456 315.48828125 375.828125 C320.43724533 378.70463332 324.40970251 382.55800958 328.4765625 386.546875 C330.87151943 388.99028885 330.87151943 388.99028885 333.3359375 390.703125 C333.88507812 391.13109375 334.43421875 391.5590625 335 392 C335 392.66 335 393.32 335 394 C314.98444177 405.26367014 294.40248396 414.30658794 270.859375 408.078125 C267.71673854 406.9312861 264.91332851 405.63794751 262 404 C260.57107422 403.2265625 260.57107422 403.2265625 259.11328125 402.4375 C252.67685224 398.7647873 252.67685224 398.7647873 250.61573792 396.43589783 C247.75510214 393.89366579 243.86543098 394.55451665 240.21484375 394.56640625 C238.89443336 394.55596031 238.89443336 394.55596031 237.54734802 394.54530334 C234.67702794 394.53130869 231.80778481 394.54398587 228.9375 394.5625 C227.96315002 394.56554138 226.98880005 394.56858276 225.98492432 394.57171631 C204.18817861 394.67280814 183.23229908 396.2827865 163 405 C162.30648438 405.28858887 161.61296875 405.57717773 160.8984375 405.87451172 C150.44772381 410.26618663 141.26114118 415.79943021 132.11376953 422.46435547 C129.84772464 424.1106274 127.5641176 425.73031813 125.27734375 427.34765625 C123.68428038 428.48090616 122.09182015 429.61500446 120.5 430.75 C119.77047119 431.26844482 119.04094238 431.78688965 118.28930664 432.32104492 C112.9164812 436.19585013 107.6921794 440.3078206 103 445 C120.24500096 445.62666894 134.1924638 443.02205673 150.16967773 436.41821289 C159.87210018 432.47471019 169.75421537 430.0665346 180 428 C181.13755737 427.73195557 181.13755737 427.73195557 182.2980957 427.45849609 C185.70320214 426.88067104 189.06055986 426.82602058 192.50390625 426.7890625 C193.9824324 426.76096517 195.46094786 426.73230057 196.93945312 426.703125 C199.24063475 426.66217611 201.54162314 426.62524138 203.84301758 426.59863281 C212.41641022 426.49122234 220.16935847 426.03779198 228.47680664 423.67236328 C242.47503514 419.94221125 257.36223388 424.48655537 269.71484375 431.06640625 C281.8711704 438.22143799 292.56347795 449.78066745 298 463 C298 463.99 298 464.98 298 466 C281.6267865 471.25444101 263.08643288 473.18755512 247 466 C245.39125 465.2884375 245.39125 465.2884375 243.75 464.5625 C232.25216523 458.92205275 221.82729059 449.93808879 215 439 C215 438.34 215 437.68 215 437 C196.02810218 438.1079138 179.89978981 440.38444662 162.55859375 448.4140625 C159.40546262 449.81929987 156.29298122 450.97506594 153 452 C153 452.66 153 453.32 153 454 C154.2375 454.3403125 154.2375 454.3403125 155.5 454.6875 C158.45040665 455.7939025 160.10059257 456.72824915 162.578125 458.51171875 C167.35779046 461.54788262 171.69264366 461.86156556 177.25 462.125 C196.07959621 463.47839771 211.54824105 468.66767069 224.87109375 482.5234375 C232.88830988 491.84988709 239.66707469 503.86878838 242 516 C223.21542234 520.16062377 202.36828674 517.0404612 186 507 C173.55984107 498.80456295 162.75630888 484.26892665 158 470 C155.97912892 469.03664202 155.97912892 469.03664202 153.5 468.4375 C152.27796875 468.09525391 152.27796875 468.09525391 151.03125 467.74609375 C150.0309375 467.49988281 149.030625 467.25367188 148 467 C147.35885254 466.82718506 146.71770508 466.65437012 146.05712891 466.47631836 C139.80691476 464.90499235 133.80207975 464.65214414 127.375 464.6875 C126.31611572 464.69241455 125.25723145 464.6973291 124.16625977 464.70239258 C115.76391011 464.82734173 108.11798996 465.70818651 100 468 C98.73929688 468.35191406 97.47859375 468.70382812 96.1796875 469.06640625 C75.73194247 475.14302889 62.25433779 486.97811694 52.00732422 505.20800781 C51.16708391 506.70276395 50.29269653 508.17825984 49.41015625 509.6484375 C43.75821205 519.71542626 41.67587992 531.40922666 41.84765625 542.8359375 C41.85424255 543.65218094 41.86082886 544.46842438 41.86761475 545.30940247 C40.80183904 611.22660799 40.80183904 611.22660799 67.29296875 668.51171875 C80.66136795 680.79984327 96.87416566 685.35751595 114.3125 688.5 C130.51593073 691.44094298 145.47927276 695.28303083 160.3125 702.6875 C161.37645996 703.20642822 162.44041992 703.72535645 163.53662109 704.26000977 C169.34155131 707.11111922 175.06984192 710.08038715 180.7578125 713.15722656 C192.88736078 719.71739067 204.66559206 723.81863447 218.26953125 726.32421875 C221 727 221 727 223 729 C212.38082184 735.14794525 198.94975646 735.77988948 187.1875 732.9375 C178.16416887 730.48728209 169.80721548 727.16305534 161.46264648 722.97827148 C153.03784131 718.84990809 144.04216692 716.4050525 135 714 C134.34781494 713.81824219 133.69562988 713.63648438 133.02368164 713.44921875 C130.80849575 712.95748971 128.71917887 712.79077197 126.453125 712.68359375 C125.60878906 712.64169922 124.76445313 712.59980469 123.89453125 712.55664062 C122.58548828 712.49766602 122.58548828 712.49766602 121.25 712.4375 C119.91775391 712.37272461 119.91775391 712.37272461 118.55859375 712.30664062 C116.37254037 712.20086385 114.18637911 712.09877454 112 712 C112 712.66 112 713.32 112 714 C112.64710938 714.21398437 113.29421875 714.42796875 113.9609375 714.6484375 C118.16898623 716.51988334 121.82011561 719.04608983 125.625 721.625 C126.4195459 722.15899414 127.2140918 722.69298828 128.03271484 723.24316406 C134.12541341 727.35774588 140.11478945 731.59257359 146 736 C145.67 736.66 145.34 737.32 145 738 C142.89708594 738.11051811 140.79236446 738.18669581 138.6875 738.25 C137.51574219 738.29640625 136.34398437 738.3428125 135.13671875 738.390625 C125.76208096 737.98958973 117.33322426 732.76595775 109.5 728.0625 C98.4435223 721.47336973 87.7761413 716.62657543 75.3125 713.3125 C74.23677734 713.01794922 73.16105469 712.72339844 72.05273438 712.41992188 C66.38549828 710.87557401 60.70445995 709.40024833 55 708 C59.82173968 719.32060622 68.6541812 726.83157116 77.984375 734.45703125 C80.83303801 736.85920692 83.41031713 739.32879008 86 742 C65.30709234 743.52029526 47.19619421 732.0365243 30.765625 720.78515625 C29.68796875 720.05167969 28.6103125 719.31820312 27.5 718.5625 C26.03046875 717.54349609 26.03046875 717.54349609 24.53125 716.50390625 C22.06086376 714.74460802 22.06086376 714.74460802 19 715 C16.10957238 723.67128287 17.80434208 732.11599693 21.5546875 740.1953125 C23.31058802 743.60270864 25.12124712 746.96369516 27.08203125 750.2578125 C28 752 28 752 28 754 C16.34197923 755.01374094 7.32368108 748.09261504 -1.34765625 741.109375 C-8.44092468 734.7339502 -12.40911836 726.70813258 -16 718 C-16 717.01 -16 716.02 -16 715 C-18.94091587 715.18415432 -18.94091587 715.18415432 -22 716 C-22.68747004 717.32272717 -23.3503954 718.65827123 -24 720 C-38.44227241 735.58476455 -59.39816804 744.20747101 -80 748 C-81.32 748 -82.64 748 -84 748 C-82.78679667 738.9329014 -74.73575692 732.68153662 -68.4375 726.625 C-62.59679454 720.99579874 -58.62252674 715.31091761 -55 708 C-65.08280722 707.87073324 -72.4551277 711.08455506 -81 716 C-81.64565918 716.36802734 -82.29131836 716.73605469 -82.95654297 717.11523438 C-89.72747433 720.99374502 -96.41406517 725.00396541 -103.03515625 729.1328125 C-112.49374631 734.99286996 -121.26984938 739.84072488 -132 743 C-132.94359375 743.35578125 -133.8871875 743.7115625 -134.859375 744.078125 C-138.72879754 745.21392565 -142.36401095 745.45092453 -146.375 745.625 C-147.47908203 745.68300781 -147.47908203 745.68300781 -148.60546875 745.7421875 C-150.40327406 745.83557998 -152.20160108 745.9188371 -154 746 C-150.46134121 742.32347138 -146.73796661 739.10713578 -142.6875 736 C-141.45887764 735.04394176 -140.23104738 734.08686496 -139.00390625 733.12890625 C-138.35953613 732.62633301 -137.71516602 732.12375977 -137.05126953 731.60595703 C-133.39033474 728.73977885 -129.75162779 725.84692913 -126.125 722.9375 C-125.41690186 722.37740234 -124.70880371 721.81730469 -123.97924805 721.24023438 C-123.32867432 720.71623047 -122.67810059 720.19222656 -122.0078125 719.65234375 C-121.13600342 718.95612915 -121.13600342 718.95612915 -120.24658203 718.24584961 C-119.83520996 717.83471924 -119.42383789 717.42358887 -119 717 C-119 716.34 -119 715.68 -119 715 C-135.263068 708.80454553 -153.27428146 715.7391949 -168.75 721.30078125 C-171 722 -171 722 -174 722 C-174 722.66 -174 723.32 -174 724 C-176.31 724.33 -178.62 724.66 -181 725 C-181 725.66 -181 726.32 -181 727 C-185.65196218 728.71181754 -190.31789964 730.37299563 -195 732 C-195.70898438 732.25652344 -196.41796875 732.51304687 -197.1484375 732.77734375 C-201.69374497 734.18618339 -206.33524078 734.23251344 -211.0625 734.3125 C-211.73587402 734.33030518 -212.40924805 734.34811035 -213.10302734 734.36645508 C-218.16950425 734.35839336 -221.5473155 733.194496 -226 731 C-226 730.01 -226 729.02 -226 728 C-220.5253298 725.81941102 -215.13790133 723.97904158 -209.36645508 722.74609375 C-195.50805896 719.72874527 -184.0731639 712.34496677 -172.171875 704.9140625 C-157.47293969 696.04401533 -142.9814231 692.05701882 -126.0625 689.5 C-100.92800081 685.51840029 -75.71678718 679.68392112 -59.203125 658.71875 C-53.6198565 650.79718956 -51.14937726 642.30576663 -49 633 C-48.79133301 632.09910645 -48.58266602 631.19821289 -48.36767578 630.27001953 C-42.06275153 602.0100222 -39.63279185 572.60415572 -39.625 543.6875 C-39.62309662 542.93003479 -39.62119324 542.17256958 -39.61923218 541.39215088 C-39.62553205 519.49439751 -44.13027855 498.12360847 -59.625 481.6875 C-82.72778365 460.2700258 -111.64905198 456.9470647 -141.92919922 457.80761719 C-149.13959741 458.25934193 -156.58816835 459.94061958 -162 465 C-163.53213883 467.78987258 -163.53213883 467.78987258 -164.8125 471 C-171.14974107 485.22323433 -179.49109226 496.4333566 -194 503 C-194.64839844 503.29519531 -195.29679688 503.59039063 -195.96484375 503.89453125 C-208.68282965 508.84990771 -223.57437598 508.30245461 -237 508 C-235.09182451 491.84140753 -226.24589331 476.44289347 -213.69140625 466.09765625 C-200.73536406 456.6241982 -187.9557092 452.03419082 -172.08105469 451.48535156 C-166.35804105 451.21356665 -162.78851769 450.02947037 -158 447 C-157.34 447 -156.68 447 -156 447 C-161.4958815 440.8460356 -170.59431832 438.67357313 -178.25 436.25 C-178.91088623 436.03939941 -179.57177246 435.82879883 -180.25268555 435.61181641 C-184.49913682 434.31380239 -188.59035085 433.48793429 -193 433 C-193.89025879 432.90122559 -194.78051758 432.80245117 -195.69775391 432.70068359 C-208.28098044 431.12202127 -208.28098044 431.12202127 -220.15380859 434.23339844 C-223.70138285 437.39312552 -226.20156827 441.25357377 -228.75683594 445.22607422 C-236.5027217 456.27902119 -251.21285836 462.40784012 -264 465 C-267.80505312 465.36226101 -271.5555929 465.3825779 -275.375 465.3125 C-276.87293091 465.29884399 -276.87293091 465.29884399 -278.40112305 465.28491211 C-296.02206797 464.98896602 -296.02206797 464.98896602 -302 462 C-299.81186879 453.39335056 -295.24348083 446.99433169 -290 440 C-289.48179687 439.30519531 -288.96359375 438.61039063 -288.4296875 437.89453125 C-280.28240841 427.72207136 -266.75373322 418.38961242 -253.65625 416.21484375 C-242.93247383 415.3474795 -233.23140775 415.09090795 -223.08984375 419.22265625 C-219.56946476 420.10831418 -217.10581947 419.81403323 -213.55493164 419.31713867 C-191.67858779 416.60167086 -171.81115573 420.31947967 -151.86572266 429.11376953 C-135.82152659 436.1091058 -119.32589003 437.01691409 -102 438 C-109.5245261 430.80050743 -117.48655311 424.41311853 -125.8125 418.16796875 C-128.35590286 416.25984273 -130.85893436 414.32300884 -133.3125 412.30078125 C-145.1724079 402.66460608 -158.79205288 394.5825281 -174 392 C-174.87052002 391.84225098 -175.74104004 391.68450195 -176.63793945 391.52197266 C-188.38547877 389.61529893 -200.24420061 389.1743182 -212.11523438 388.56738281 C-215.88709361 388.37438118 -219.6583863 388.17233958 -223.4296875 387.96875 C-225.84632652 387.84062325 -228.26299236 387.7130013 -230.6796875 387.5859375 C-231.79753632 387.52659027 -232.91538513 387.46724304 -234.06710815 387.40609741 C-245.29457393 386.07976274 -245.29457393 386.07976274 -255.3125 389.6875 C-269.32070936 399.93918263 -285.49802093 402.63161388 -302.5234375 400.57421875 C-314.53655733 398.33378565 -329.52992825 393.00983393 -339 385 C-339.60766602 382.90893555 -339.60766602 382.90893555 -340 381 C-321.77669244 366.28400466 -305.78580869 358.10844925 -282 360 C-275.22490894 361.04797881 -268.94078434 363.53752368 -263.34814453 367.46850586 C-249.69173 376.80684764 -236.62621785 376.20824288 -220.5625 375.6875 C-218.03978528 375.64579821 -215.51699082 375.60866053 -212.99414062 375.57617188 C-202.61679614 375.41022 -192.32760413 375.06938198 -182 374 C-190.01892239 365.46372778 -199.35161213 359.92547038 -209.6875 354.5625 C-212.1985429 353.24323269 -214.70655746 351.91824897 -217.21484375 350.59375 C-217.8182962 350.27620255 -218.42174866 349.95865509 -219.04348755 349.63148499 C-223.33802162 347.36713151 -227.55806095 345.01063126 -231.75 342.5625 C-238.99104369 338.35237664 -246.48127168 334.68158421 -254 331 C-255.10021484 330.38511719 -255.10021484 330.38511719 -256.22265625 329.7578125 C-260.21660673 328.05489735 -265.11216992 329.70140753 -269.0546875 331.02734375 C-274.06869272 332.48554957 -279.12958325 332.32931673 -284.3125 332.3125 C-285.29412109 332.32861328 -286.27574219 332.34472656 -287.28710938 332.36132812 C-294.01628959 332.36578159 -299.68983527 331.31661041 -306 329 C-306.90492188 328.67 -307.80984375 328.34 -308.7421875 328 C-322.86691878 321.37741537 -335.0358835 307.17651961 -341.3359375 292.9921875 C-341.66464844 292.00605469 -341.66464844 292.00605469 -342 291 C-322.86170659 284.04062058 -304.28305222 280.66152341 -285 289 C-275.32676221 293.85468846 -267.52802223 300.66741317 -262.00946045 309.99334717 C-255.67434858 320.21893284 -247.22607662 323.3471584 -236.25 327.25 C-234.56227058 327.88788965 -232.87605447 328.52979814 -231.19140625 329.17578125 C-224.8402479 331.59096189 -218.45675402 333.88165573 -212 336 C-218.68684787 314.52213536 -228.9352166 293.17863117 -240.30883789 273.79492188 C-243 269.18954148 -243 269.18954148 -243 267 C-243.89525391 266.87044922 -243.89525391 266.87044922 -244.80859375 266.73828125 C-264.06736032 263.61910509 -282.21594055 257.80028215 -294.20751953 241.34277344 C-300.55976772 232.06328137 -308.86694867 218.60377453 -308 207 C-293.9562477 203.04579918 -275.96235309 205.61112626 -263.33203125 212.5078125 C-247.27948715 222.77928963 -238.65449817 239.34736754 -234.17578125 257.3046875 C-232.83738282 261.51108256 -230.99652056 265.08452 -228.875 268.9375 C-225.49400771 275.18556864 -222.24608256 281.48234152 -219.1328125 287.8671875 C-218.44422636 289.27224286 -217.75558657 290.67727193 -217.06689453 292.08227539 C-216.04500221 294.16837188 -215.02713469 296.25590258 -214.02288818 298.35055542 C-207.5913095 311.75563548 -199.49144545 323.28361911 -189.9453125 334.67578125 C-188.83147339 336.00657296 -187.73235841 337.35078469 -186.6796875 338.73046875 C-182.33701537 344.39416352 -176.11269045 350.47082318 -169 352 C-172.07573155 340.97610667 -175.19902547 330.0180219 -179.01953125 319.2265625 C-179.92074252 316.26082341 -180.22367638 313.75705683 -180.4375 310.6875 C-181.15582621 306.3631762 -183.29482925 304.63896597 -186.78295898 302.11010742 C-189.2892864 300.40248914 -191.8179963 298.73269999 -194.36181641 297.08154297 C-204.24493642 290.55662171 -209.84490744 278.15391877 -213 267 C-215.50754483 253.80324164 -216.76471678 234.64707516 -209 223 C-198.26599665 226.24844838 -189.89390146 233.24126808 -182 241 C-181.3503125 241.63679687 -180.700625 242.27359375 -180.03125 242.9296875 C-170.57166037 252.9286397 -166.39271876 265.19514693 -166.6640625 278.75 C-166.94705464 284.07121977 -168.50129534 288.91093747 -170.08984375 293.97265625 C-175.54532249 312.11856192 -158.64616297 340.66116864 -150.4375 356.3125 C-141.55406298 372.70839946 -129.22074882 388.77104651 -112 397 C-112.2099435 387.6191101 -112.48759594 378.24369364 -112.85546875 368.86767578 C-112.94066137 366.58790978 -113.01546402 364.30764386 -113.06640625 362.02685547 C-113.10277093 353.6010255 -113.10277093 353.6010255 -117.3671875 346.6796875 C-120.17092463 344.86371684 -122.97684256 343.41281079 -126 342 C-136.0314988 335.05511621 -140.08554921 324.42276679 -143 313 C-143.1757959 312.36940674 -143.3515918 311.73881348 -143.53271484 311.08911133 C-146.78537397 296.54731188 -143.78397028 279.01695819 -137 266 C-132.15455364 266.44767711 -129.95155404 268.50152892 -126.5 271.8125 C-123.84277929 274.33909891 -121.23553819 276.81233826 -118.3671875 279.09765625 C-107.65839774 287.70356485 -98.62476465 301.4562144 -96 315 C-95.12875769 323.73731573 -96.44247862 330.47197812 -99.90625 338.515625 C-102.06755536 345.40092636 -101.10324976 351.83617008 -99.375 358.75 C-97.99516172 364.55914454 -96.70617425 370.37431389 -95.5390625 376.23046875 C-95.28463379 377.50116211 -95.03020508 378.77185547 -94.76806641 380.08105469 C-94.26689331 382.59743426 -93.77150456 385.11497481 -93.28271484 387.63378906 C-90.33825503 402.8072824 -90.33825503 402.8072824 -81.5 415 C-80.5615625 415.886875 -79.623125 416.77375 -78.65625 417.6875 C-76.49444033 419.56954607 -74.32764532 421.33112222 -72 423 C-71.649375 421.80375 -71.29875 420.6075 -70.9375 419.375 C-70.74027344 418.70210937 -70.54304688 418.02921875 -70.33984375 417.3359375 C-69.46807461 411.34377722 -71.69177674 407.45162744 -74.9375 402.5625 C-81.28618859 392.98761758 -82.24093514 383.19432305 -81 372 C-77.89409198 359.04186281 -69.54452934 346.80239429 -62 336 C-57.67635078 337.50004157 -55.86024658 340.72052803 -53.5625 344.4375 C-52.97154541 345.37867676 -52.97154541 345.37867676 -52.36865234 346.33886719 C-49.0711013 351.68940531 -46.2766991 357.13415172 -44 363 C-43.68160156 363.79535156 -43.36320312 364.59070313 -43.03515625 365.41015625 C-39.44115432 375.59592208 -39.65658854 387.08853099 -44 397 C-46.62674636 402.27737222 -49.43076386 406.65714448 -53.8125 410.625 C-56.69325729 413.37800752 -58.05016633 415.54226816 -58.1953125 419.703125 C-57.38007885 429.29027274 -54.53638323 435.98824345 -48 443 C-47.41347656 443.65355469 -46.82695312 444.30710937 -46.22265625 444.98046875 C-40.32265027 451.22973513 -32.74158374 458.12920813 -25 462 C-25.01740234 461.20392334 -25.03480469 460.40784668 -25.05273438 459.58764648 C-25.22735344 444.03095884 -24.20408939 428.50467113 -23.39068604 412.9755249 C-20.98740409 367.03312166 -26.78477007 338.52904354 -57.85546875 303.77734375 C-60.08176178 301.32224281 -62.34377964 298.90162885 -64.61425781 296.48730469 C-66.06951376 294.9253915 -67.50133459 293.34434819 -68.9296875 291.7578125 C-90.68525996 267.66380875 -115.00407168 252.87672254 -144.48388672 239.90722656 C-163.1131406 231.64158591 -182.22315153 220.40686478 -195.078125 204.1796875 C-197.06853006 201.79829828 -197.76421684 201.0799153 -200.7890625 200.0546875 C-201.72492188 199.99539063 -202.66078125 199.93609375 -203.625 199.875 C-218.12024851 198.12341633 -230.17473476 190.07051987 -239.5 179.0625 C-249.66438121 165.29690197 -253.73014785 147.85349368 -254 131 C-237.25170178 131.62377275 -221.65061757 135.79575058 -209.3203125 147.48828125 C-199.23558365 158.40491534 -194.77022914 171.64146657 -192.60668945 186.05834961 C-191.04948846 195.34623275 -184.98402959 198.97446828 -177.6875 204.1875 C-176.89786865 204.75339844 -176.1082373 205.31929687 -175.29467773 205.90234375 C-160.67447788 216.28126848 -146.42048058 224.44665198 -129.28515625 229.88671875 C-126 231 -126 231 -123.80859375 232.14453125 C-121.73080075 233.28505514 -121.73080075 233.28505514 -118 233 C-118.4846875 232.22398437 -118.969375 231.44796875 -119.46875 230.6484375 C-122.79021098 225.29577538 -126.06371894 219.94354073 -129.1171875 214.43261719 C-130.69982026 211.5939997 -132.34135931 208.79498602 -134 206 C-134.42023438 205.2884375 -134.84046875 204.576875 -135.2734375 203.84375 C-138.90323524 198.75740921 -144.33608251 196.65347653 -149.82641602 194.04711914 C-164.14580068 187.20715133 -176.48497315 176.70534631 -183 162 C-184.74726886 156.76585127 -185.92784176 151.40690554 -187 146 C-187.19722656 145.08734375 -187.39445313 144.1746875 -187.59765625 143.234375 C-188.20325921 138.36603277 -188.10359723 133.52505433 -188.0625 128.625 C-188.05798828 127.60277344 -188.05347656 126.58054687 -188.04882812 125.52734375 C-188.037103 123.01816806 -188.02069176 120.5091151 -188 118 C-182.1219691 119.11433461 -176.88058205 120.63536557 -171.5 123.25 C-170.85490479 123.5579248 -170.20980957 123.86584961 -169.54516602 124.18310547 C-164.38199973 126.70093383 -159.608122 129.56095758 -155 133 C-153.96875 133.721875 -152.9375 134.44375 -151.875 135.1875 C-139.60361475 145.96733566 -135.62952582 164.08815469 -133.54296875 179.52734375 C-133.39287354 180.63505127 -133.39287354 180.63505127 -133.23974609 181.76513672 C-133 184 -133 184 -132.95166016 186.28564453 C-132.68553495 193.15343909 -129.80670777 196.32011528 -125 201 C-124.31566895 201.70125 -123.63133789 202.4025 -122.92626953 203.125 C-120.8256627 205.27179004 -118.69896874 207.38894214 -116.5625 209.5 C-115.83095703 210.22703125 -115.09941406 210.9540625 -114.34570312 211.703125 C-112.56610176 213.47109499 -110.78419082 215.23666378 -109 217 C-108.01 216.67 -107.02 216.34 -106 216 C-105.65063304 186.70158996 -105.65063304 186.70158996 -108.3125 157.5625 C-108.47069214 156.43642334 -108.47069214 156.43642334 -108.63208008 155.28759766 C-109.4082066 150.58402622 -110.87186634 146.81445963 -113.18432617 142.64428711 C-114 141 -114 141 -114 139 C-114.81984375 138.9175 -115.6396875 138.835 -116.484375 138.75 C-120.849649 137.81874155 -124.33477933 136.09584606 -128.25 134 C-129.00071777 133.59918213 -129.75143555 133.19836426 -130.52490234 132.78540039 C-136.83666981 129.30011236 -142.01214532 125.2235756 -147 120 C-147.63035156 119.38898438 -148.26070312 118.77796875 -148.91015625 118.1484375 C-160.83316965 105.83235772 -164.2987478 89.63640534 -164.24194336 73.09082031 C-164.18043132 69.5734151 -163.93829995 66.38511921 -163 63 C-146.13548676 64.14335683 -132.6647532 70.88281961 -121 83 C-110.56602895 95.39679729 -105.71820088 109.34607095 -105.609375 125.2890625 C-105.45579114 130.2549407 -104.4598508 133.46543683 -102.06933594 137.78955078 C-99.91010073 142.25295617 -98.96142598 147.13588467 -97.8125 151.9375 C-97.55275391 152.97068359 -97.29300781 154.00386719 -97.02539062 155.06835938 C-94.74564412 164.36996075 -93.89426345 173.35186587 -93.640625 182.90625 C-93.57665794 184.80472615 -93.51151527 186.70316299 -93.4453125 188.6015625 C-93.34490787 191.53864157 -93.25062324 194.47521186 -93.17675781 197.41308594 C-92.22395169 234.05281234 -75.50898278 254.25736775 -50.10864258 279.00390625 C-47.45457992 281.51630827 -44.715603 283.91565207 -41.94897461 286.30273438 C-38.70758749 289.12549815 -35.57481635 292.06265888 -32.4375 295 C-31.81681641 295.5775 -31.19613281 296.155 -30.55664062 296.75 C-26.76902307 300.28879597 -23.07999858 303.90179031 -19.46508789 307.6171875 C-18.02929711 309.10564312 -18.02929711 309.10564312 -16 310 C-15.14268648 289.93095004 -17.13116205 276.23404366 -28.26904297 259.42578125 C-32.1267278 253.56540858 -35.38369352 247.59510852 -38.375 241.25 C-38.79257568 240.37110107 -39.21015137 239.49220215 -39.64038086 238.58666992 C-41.47188487 234.63976217 -43.15028213 230.73729181 -44.4609375 226.5859375 C-46.77797359 219.17208213 -46.77797359 219.17208213 -52.1953125 213.80859375 C-54.6126499 212.58768 -57.08876385 211.54387465 -59.58984375 210.5078125 C-69.59785351 206.08273602 -73.9752265 196.64857863 -78 187 C-83.78524237 168.56931232 -81.43292794 149.01557704 -75.16015625 131.0390625 C-74 129 -74 129 -72.15625 127.5703125 C-70 127 -70 127 -67.80859375 127.765625 C-51.54436143 137.94751673 -39.26299151 152.24873193 -34.125 171 C-31.89717149 181.99327284 -31.0170053 195.50710149 -35.44140625 206.02734375 C-37.10703095 211.90944496 -32.67541819 217.76225046 -29.9375 222.6875 C-29.44306396 223.58146484 -28.94862793 224.47542969 -28.43920898 225.39648438 C-23.83627374 233.56161356 -18.69101093 240.4119277 -12 247 C-11.97494385 246.42145264 -11.9498877 245.84290527 -11.92407227 245.24682617 C-11.8061959 242.56026066 -11.68436051 239.87388764 -11.5625 237.1875 C-11.50352539 235.82334961 -11.50352539 235.82334961 -11.44335938 234.43164062 C-11.23679638 229.93492317 -10.96625901 225.46701797 -10.51171875 220.98828125 C-9.8043018 213.52021668 -9.56312312 206.03440434 -9.33251953 198.5390625 C-9.27749846 196.84610655 -9.21532065 195.15336808 -9.14599609 193.4609375 C-8.13318181 168.65418765 -18.82292523 151.67863264 -31.33496094 130.84106445 C-32.43730915 128.9601222 -33.49394011 127.0515675 -34.50097656 125.11791992 C-36.89357861 120.37830654 -36.89357861 120.37830654 -40.7746582 116.95849609 C-42.73721007 116.37269756 -44.59263715 116.05722964 -46.625 115.8125 C-57.43596059 113.80391304 -67.18842334 108.88684817 -74 100 C-82.71051657 86.99787192 -85.17689995 75.53747455 -85.1875 60.125 C-85.19974609 59.19558594 -85.21199219 58.26617187 -85.22460938 57.30859375 C-85.23784929 50.97991216 -84.47577278 45.15225841 -83 39 C-65.2618878 41.85076803 -51.09230038 51.06137348 -40 65 C-31.92652278 76.37463234 -29.58901928 86.5703539 -29.8125 100.375 C-29.70394474 112.49447359 -28.68203158 119.16757103 -20 128 C-18.57005383 129.8439448 -17.15261927 131.69768428 -15.75 133.5625 C-13.12856684 136.88410227 -10.37005841 139.43759352 -7 142 C-6.70854289 137.44830811 -6.42434734 132.89623203 -6.14550781 128.34375 C-6.00515416 126.08302007 -5.85821687 123.8227875 -5.7109375 121.5625 C-5.4720553 117.81560382 -5.28395879 114.06813328 -5.1171875 110.31738281 C-5.03782916 108.74807166 -4.94094216 107.17956585 -4.828125 105.61230469 C-3.7996856 94.31511166 -3.7996856 94.31511166 -8.6875 84.5 C-9.41710937 83.7471875 -10.14671875 82.994375 -10.8984375 82.21875 C-19.20036542 73.4538893 -21.57723088 60.37666884 -21.5 48.75 C-21.49427979 47.74219482 -21.48855957 46.73438965 -21.48266602 45.69604492 C-21.07002845 28.37499274 -12.17275922 12.17275922 0 0 Z " fill="#2B6C41" transform="translate(511,99)"/>
<path d="M0 0 C0.66 0.66 1.32 1.32 2 2 C-10.80969908 14.27484735 -23.07314686 20.3145062 -41 20 C-41 19.67 -41 19.34 -41 19 C-39.3603125 18.5359375 -39.3603125 18.5359375 -37.6875 18.0625 C-35.44592006 17.41662103 -33.2130649 16.7376883 -31 16 C-30.06800781 16.02191406 -29.13601563 16.04382813 -28.17578125 16.06640625 C-16.95328839 15.83174158 -7.47068068 7.62076132 0 0 Z " fill="#88AA8A" transform="translate(334,586)"/>
<path d="M0 0 C0.33 0 0.66 0 1 0 C0.9278125 0.66902344 0.855625 1.33804687 0.78125 2.02734375 C-1.44966349 19.72907391 -1.44966349 19.72907391 3.22265625 36.3359375 C4 38 4 38 3 41 C-2.96623548 35.03376452 -3.38931629 24.70261063 -3.4375 16.6875 C-3.4473291 15.94757813 -3.4571582 15.20765625 -3.46728516 14.4453125 C-3.38420216 9.06057086 -2.10869948 4.95013007 0 0 Z " fill="#6E9875" transform="translate(562,465)"/>
<path d="M0 0 C0.33 0 0.66 0 1 0 C1.08040527 0.56920166 1.16081055 1.13840332 1.24365234 1.72485352 C1.61572901 4.33814804 1.99530934 6.95030131 2.375 9.5625 C2.50132812 10.45775391 2.62765625 11.35300781 2.7578125 12.27539062 C3.49925326 17.33572382 4.46076492 22.12129403 6 27 C5.34 27.66 4.68 28.32 4 29 C-0.72455379 19.42434188 -0.41167905 10.39489594 0 0 Z " fill="#487E58" transform="translate(606,419)"/>
<path d="M0 0 C0.33 0 0.66 0 1 0 C1.05783842 4.29161047 1.0935412 8.58312145 1.125 12.875 C1.14175781 14.09832031 1.15851562 15.32164062 1.17578125 16.58203125 C1.18222656 17.74863281 1.18867187 18.91523437 1.1953125 20.1171875 C1.20578613 21.19597168 1.21625977 22.27475586 1.22705078 23.38623047 C1 26 1 26 -1 28 C-2.17426264 25.65147472 -2.11508173 24.26225935 -2.09765625 21.6484375 C-2.09443359 20.79765625 -2.09121094 19.946875 -2.08789062 19.0703125 C-2.07951172 18.18085937 -2.07113281 17.29140625 -2.0625 16.375 C-2.05798828 15.4778125 -2.05347656 14.580625 -2.04882812 13.65625 C-2.03702591 11.43743352 -2.02056155 9.21874982 -2 7 C-1.67 7 -1.34 7 -1 7 C-0.67 4.69 -0.34 2.38 0 0 Z " fill="#367049" transform="translate(537,543)"/>
<path d="M0 0 C0.33 0.66 0.66 1.32 1 2 C0.154375 2.66 -0.69125 3.32 -1.5625 4 C-5.49785433 7.27791867 -8.70640318 11.09484046 -12 15 C-13.14515459 16.33391633 -14.29093945 17.66729197 -15.4375 19 C-16.283125 19.99 -17.12875 20.98 -18 22 C-18.66 21.67 -19.32 21.34 -20 21 C-18.26736285 18.76606614 -16.53218089 16.53436843 -14.7890625 14.30859375 C-13.53427664 12.68942684 -12.31564328 11.0419006 -11.125 9.375 C-7.85229159 5.71726707 -3.93233006 2.91563789 0 0 Z " fill="#1C5E31" transform="translate(236,525)"/>
<path d="M0 0 C3.915141 3.35583515 6.0795774 7.28066362 8 12 C8 12.66 8 13.32 8 14 C5.69 14 3.38 14 1 14 C0.67 13.34 0.34 12.68 0 12 C1.32 11.01 2.64 10.02 4 9 C3.34 8.071875 2.68 7.14375 2 6.1875 C0 3 0 3 0 0 Z " fill="#1F5F34" transform="translate(531,839)"/>
<path d="M0 0 C0 3 0 3 -2.1875 5.375 C-3.115625 6.24125 -4.04375 7.1075 -5 8 C-5.928125 8.928125 -6.85625 9.85625 -7.8125 10.8125 C-8.534375 11.534375 -9.25625 12.25625 -10 13 C-10.99 12.67 -11.98 12.34 -13 12 C-9.12207712 7.07091854 -5.23883167 3.4576289 0 0 Z " fill="#236439" transform="translate(644,175)"/>
<path d="M0 0 C0.66 0.33 1.32 0.66 2 1 C2 1.66 2 2.32 2 3 C2.66 3 3.32 3 4 3 C4 3.66 4 4.32 4 5 C8.95 5 13.9 5 19 5 C19 5.33 19 5.66 19 6 C16.4784979 6.08172936 13.95970083 6.14083373 11.4375 6.1875 C10.73302734 6.21263672 10.02855469 6.23777344 9.30273438 6.26367188 C4.11996685 6.33532304 0.63735818 5.32172598 -4 3 C-2.68 2.67 -1.36 2.34 0 2 C0 1.34 0 0.68 0 0 Z " fill="#5D8866" transform="translate(289,827)"/>
<path d="M0 0 C0.99 0.33 1.98 0.66 3 1 C1.71937515 2.7074998 0.38232443 4.37373596 -1 6 C-1.66 6 -2.32 6 -3 6 C-3.33 7.32 -3.66 8.64 -4 10 C-2.68 10.33 -1.36 10.66 0 11 C-1.98 11.33 -3.96 11.66 -6 12 C-5.54300722 6.97307937 -3.00758252 3.85103739 0 0 Z " fill="#236136" transform="translate(433,835)"/>
<path d="M0 0 C0.44730469 0.3609375 0.89460938 0.721875 1.35546875 1.09375 C5.23864387 4.13442422 5.23864387 4.13442422 9.9375 5.3125 C10.618125 5.209375 11.29875 5.10625 12 5 C12.33 5.99 12.66 6.98 13 8 C8.16819341 8.34512904 5.0488862 7.73064418 1 5 C0.125 2.3125 0.125 2.3125 0 0 Z " fill="#6E9775" transform="translate(331,445)"/>
<path d="M0 0 C1.58294782 -0.05437607 3.16644256 -0.09296271 4.75 -0.125 C5.63171875 -0.14820313 6.5134375 -0.17140625 7.421875 -0.1953125 C10.1135858 0.00860498 11.69904974 0.63448279 14 2 C13 3 13 3 9.83984375 3.09765625 C7.90818359 3.08025391 7.90818359 3.08025391 5.9375 3.0625 C4.64714844 3.05347656 3.35679687 3.04445313 2.02734375 3.03515625 C1.02832031 3.02355469 0.02929688 3.01195312 -1 3 C-0.67 2.01 -0.34 1.02 0 0 Z " fill="#337048" transform="translate(269,483)"/>
<path d="M0 0 C0.66 0.66 1.32 1.32 2 2 C0.43122326 3.5358444 -1.15556154 5.05331331 -2.75 6.5625 C-3.63171875 7.40941406 -4.5134375 8.25632812 -5.421875 9.12890625 C-8 11 -8 11 -10.328125 10.77734375 C-10.87984375 10.52082031 -11.4315625 10.26429688 -12 10 C-11.46890625 9.61328125 -10.9378125 9.2265625 -10.390625 8.828125 C-6.67177773 6.08649307 -3.14670262 3.40892784 0 0 Z " fill="#699370" transform="translate(334,586)"/>
<path d="M0 0 C4.32504836 1.65863505 7.09418825 4.871041 10.25 8.125 C11.08144531 8.96998047 11.08144531 8.96998047 11.9296875 9.83203125 C13.29104485 11.21686028 14.64614859 12.60783204 16 14 C15.34 14.66 14.68 15.32 14 16 C9.23363401 10.74557475 4.48507257 5.49783089 0 0 Z " fill="#206236" transform="translate(429,376)"/>
<path d="M0 0 C0.66 0.99 1.32 1.98 2 3 C-1.63 3 -5.26 3 -9 3 C-8.67 2.01 -8.34 1.02 -8 0 C-5.08888196 -1.20460057 -2.91505634 -1.16602254 0 0 Z " fill="#266237" transform="translate(595,838)"/>
<path d="M0 0 C0.66 1.32 1.32 2.64 2 4 C0.625 7.75 0.625 7.75 -1 11 C-1.99 11 -2.98 11 -4 11 C-2.68 7.37 -1.36 3.74 0 0 Z " fill="#417751" transform="translate(600,343)"/>
<path d="M0 0 C2.52588702 2.36292656 3.88820837 3.66462511 5 7 C2.36 6.67 -0.28 6.34 -3 6 C-2.01 5.67 -1.02 5.34 0 5 C0 3.35 0 1.7 0 0 Z " fill="#BFCCB5" transform="translate(389,326)"/>
<path d="M0 0 C3.82946843 1.45255699 5.12050295 3.42895561 7 7 C6.01 7.495 6.01 7.495 5 8 C4.54625 7.525625 4.0925 7.05125 3.625 6.5625 C2.06741796 4.90972192 2.06741796 4.90972192 0 4 C0 2.68 0 1.36 0 0 Z " fill="#26663B" transform="translate(449,435)"/>
<path d="M0 0 C5.66153846 1.47692308 5.66153846 1.47692308 7.375 4.125 C7.58125 4.74375 7.7875 5.3625 8 6 C3 4 3 4 -2 2 C-1.34 1.34 -0.68 0.68 0 0 Z " fill="#457C55" transform="translate(270,434)"/>
<path d="M0 0 C6.625 -0.25 6.625 -0.25 10 2 C6.78548731 3.60725635 3.56387464 3.05748185 0 3 C0 2.01 0 1.02 0 0 Z " fill="#337248" transform="translate(287,484)"/>
<path d="M0 0 C2.31 0.33 4.62 0.66 7 1 C6.67 1.66 6.34 2.32 6 3 C3.35139573 3.59355614 0.70802678 3.74209269 -2 4 C-1.01 3.34 -0.02 2.68 1 2 C0.67 1.34 0.34 0.68 0 0 Z " fill="#145527" transform="translate(727,826)"/>
<path d="M0 0 C0 3 0 3 -2.5 5.6875 C-3.325 6.450625 -4.15 7.21375 -5 8 C-5.66 7.67 -6.32 7.34 -7 7 C-2.25 1.125 -2.25 1.125 0 0 Z " fill="#206235" transform="translate(707,334)"/>
<path d="M0 0 C-0.33 0.99 -0.66 1.98 -1 3 C-3.06640625 3.94921875 -3.06640625 3.94921875 -5.5625 4.6875 C-6.38878906 4.93886719 -7.21507812 5.19023437 -8.06640625 5.44921875 C-8.70449219 5.63097656 -9.34257813 5.81273437 -10 6 C-4.4 0 -4.4 0 0 0 Z " fill="#195D30" transform="translate(681,234)"/>
<path d="M0 0 C-1.65 0.33 -3.3 0.66 -5 1 C-5 1.66 -5 2.32 -5 3 C-6.65 3 -8.3 3 -10 3 C-6.81859267 -0.48439851 -4.56758339 -1.41752588 0 0 Z " fill="#215F33" transform="translate(294,826)"/>
<path d="M0 0 C1.65 0.33 3.3 0.66 5 1 C3.09598862 2.90401138 1.66574314 3.93520439 -1.046875 4.19921875 C-3.03233273 4.1886578 -5.0169914 4.09915043 -7 4 C-7 3.67 -7 3.34 -7 3 C-4.69 2.34 -2.38 1.68 0 1 C0 0.67 0 0.34 0 0 Z " fill="#6E9875" transform="translate(300,602)"/>
<path d="M0 0 C1.30660357 4.29727397 0.6596762 7.60215865 0 12 C-2 9 -2 9 -1.7578125 6.73828125 C-1.44457031 5.53751953 -1.44457031 5.53751953 -1.125 4.3125 C-0.92132812 3.50425781 -0.71765625 2.69601562 -0.5078125 1.86328125 C-0.34023438 1.24839844 -0.17265625 0.63351562 0 0 Z " fill="#36714B" transform="translate(609,410)"/>
<path d="M0 0 C2.10633718 1.70828921 2.93801608 2.52148416 3.29296875 5.26171875 C3.25816406 6.06222656 3.22335937 6.86273438 3.1875 7.6875 C3.16042969 8.49574219 3.13335937 9.30398438 3.10546875 10.13671875 C3.07066406 10.75160156 3.03585937 11.36648438 3 12 C2.67 12 2.34 12 2 12 C0.86235649 7.73383684 0 4.43513689 0 0 Z " fill="#226137" transform="translate(272,345)"/>
<path d="M0 0 C1.73662334 3.22515763 2.8905928 6.51329166 4 10 C3.01 10.495 3.01 10.495 2 11 C0.19769832 7.17010894 -0.19622241 4.21878192 0 0 Z " fill="#548661" transform="translate(562,495)"/>
<path d="M0 0 C0.33 0.66 0.66 1.32 1 2 C0.22265625 3.9453125 0.22265625 3.9453125 -0.9375 6.125 C-1.31777344 6.84945313 -1.69804688 7.57390625 -2.08984375 8.3203125 C-2.39019531 8.87460937 -2.69054687 9.42890625 -3 10 C-3.33 10 -3.66 10 -4 10 C-4 8.35 -4 6.7 -4 5 C-3.34 5 -2.68 5 -2 5 C-1.34 3.35 -0.68 1.7 0 0 Z " fill="#185B2D" transform="translate(542,453)"/>
<path d="M0 0 C0.99 0 1.98 0 3 0 C3 1.98 3 3.96 3 6 C2.34 6 1.68 6 1 6 C1 6.66 1 7.32 1 8 C0.34 7.67 -0.32 7.34 -1 7 C-0.67 4.69 -0.34 2.38 0 0 Z " fill="#35704A" transform="translate(744,360)"/>
<path d="M0 0 C0.66 0.33 1.32 0.66 2 1 C-0.625 5.875 -0.625 5.875 -4 7 C-2.92598892 4.08482708 -2.22189824 2.22189824 0 0 Z " fill="#216439" transform="translate(692,348)"/>
<path d="M0 0 C-3.75 3 -3.75 3 -6 3 C-6 2.34 -6 1.68 -6 1 C-6.99 0.67 -7.98 0.34 -9 0 C-5.62182575 -0.84454356 -3.32534757 -1.10844919 0 0 Z " fill="#37724B" transform="translate(404,787)"/>
<path d="M0 0 C0.99 0.33 1.98 0.66 3 1 C1.35 2.98 -0.3 4.96 -2 7 C-2.33 6.01 -2.66 5.02 -3 4 C-1.5625 1.8125 -1.5625 1.8125 0 0 Z " fill="#467D54" transform="translate(338,580)"/>
<path d="M0 0 C0.66 0 1.32 0 2 0 C2.12375 0.78375 2.2475 1.5675 2.375 2.375 C2.79117993 5.14057822 2.79117993 5.14057822 5 7 C4.01 7.33 3.02 7.66 2 8 C-0.1519437 4.77208445 -0.20086443 3.71599191 0 0 Z " fill="#4D7F5A" transform="translate(582,523)"/>
</svg>
